<svg version="1.1" xmlns="http://www.w3.org/2000/svg" xmlns:xlink="http://www.w3.org/1999/xlink" width="800" height="800"><defs/><g transform="scale(2,2)"><g id="background-d0408179"><rect fill="white" stroke="none" x="0" y="0" width="400" height="400" class="dcg-svg-background"/></g><g id="background-images-d0408179"/><g id="graphpaper-d0408179"><g id="axis-d0408179"><g><g><path fill="none" stroke="rgb(0,0,0)" class="dcg-svg-tickmark" paint-order="fill stroke markers" d="" stroke-opacity="0.9" stroke-miterlimit="2" stroke-width="1.5" stroke-dasharray=""/></g></g></g></g><g id="expressions-d0408179"><g id="sketch-d0408179"><title>left/right</title></g><g id="sketch-d0408179"><title>up/down</title></g><g id="sketch-d0408179"><title>Expression 18</title><path fill="#388c46" stroke="none" paint-order="stroke fill markers" d="" fill-opacity="0.4"/><g><path fill="none" stroke="#388c46" class="dcg-svg-curve" paint-order="fill stroke markers" d=" M 172.69869987849648 200.46657912734747 L 172.69869987849648 200.46657912734747 L 298.478955077288 263.7968812487143" stroke-linecap="round" stroke-linejoin="round" stroke-miterlimit="10" stroke-width="2.5" stroke-dasharray=""/></g></g><g id="sketch-d0408179"><title>x</title></g><g id="sketch-d0408179"><title>Expression 20</title><path fill="#388c46" stroke="none" paint-order="stroke fill markers" d="" fill-opacity="0.4"/><g><path fill="none" stroke="#388c46" class="dcg-svg-curve" paint-order="fill stroke markers" d=" M 172.69869987849648 200.46657912734747 L 172.69869987849648 200.46657912734747 L 285.95175035230284 130.13115302344372" stroke-linecap="round" stroke-linejoin="round" stroke-miterlimit="10" stroke-width="2.5" stroke-dasharray=""/></g></g><g id="sketch-d0408179"><title>y</title></g><g id="sketch-d0408179"><title>Expression 22</title><path fill="#c74440" stroke="none" paint-order="stroke fill markers" d="" fill-opacity="0.4"/><g><path fill="none" stroke="#c74440" class="dcg-svg-curve" paint-order="fill stroke markers" d=" M 46.91844467970495 137.13627700598062 L 56.74335222156918 142.083113550058 M 62.99556611184643 145.2311004417436 L 72.82047365371066 150.17793698582093 M 79.07268754398791 153.3259238775065 L 88.89759508585215 158.27276042158388 M 95.14980897612939 161.42074731326946 L 104.97471651799363 166.36758385734683 M 111.22693040827087 169.5155707490324 L 121.05183795013511 174.46240729310978 M 127.30405184041236 177.61039418479538 L 137.1289593822766 182.55723072887272 M 143.38117327255384 185.7052176205583 L 153.20608081441807 190.65205416463567 M 159.4582947046953 193.80004105632125 L 169.28320224655954 198.74687760039862" stroke-linecap="round" stroke-linejoin="round" stroke-miterlimit="10" stroke-width="2.5" stroke-dasharray=""/></g></g><g id="sketch-d0408179"><title>Expression 23</title><path fill="#c74440" stroke="none" paint-order="stroke fill markers" d="" fill-opacity="0.4"/><g><path fill="none" stroke="#c74440" class="dcg-svg-curve" paint-order="fill stroke markers" d=" M 59.445649404690116 270.8020052312512 L 68.7901962410424 264.99860584613054 M 74.73672604599385 261.3055335101447 L 84.08127288234613 255.50213412502407 M 90.02780268729758 251.80906178903822 L 99.37234952364986 246.0056624039176 M 105.31887932860131 242.31259006793175 L 114.66342616495359 236.50919068281112 M 120.60995596990504 232.81611834682528 L 129.95450280625732 227.01271896170465 M 135.9010326112088 223.3196466257188 L 145.24557944756108 217.51624724059818 M 151.19210925251255 213.8231749046123 L 160.53665608886485 208.01977551949167 M 166.48318589381628 204.32670318350583 L 172.69869987849648 200.46657912734747" stroke-linecap="round" stroke-linejoin="round" stroke-miterlimit="10" stroke-width="2.5" stroke-dasharray=""/></g></g><g id="sketch-d0408179"><title>Expression 24</title><path fill="#000000" stroke="none" paint-order="stroke fill markers" d="" fill-opacity="0.4"/><g><path fill="none" stroke="#000000" class="dcg-svg-curve" paint-order="fill stroke markers" d=" M 172.69869987849648 340.78452775650305 L 172.69869987849648 329.78452775650305 M 172.69869987849648 322.78452775650305 L 172.69869987849648 311.78452775650305 M 172.69869987849648 304.78452775650305 L 172.69869987849648 293.78452775650305 M 172.69869987849648 286.78452775650305 L 172.69869987849648 275.78452775650305 M 172.69869987849648 268.78452775650305 L 172.69869987849648 257.78452775650305 M 172.69869987849648 250.78452775650305 L 172.69869987849648 239.78452775650305 M 172.69869987849648 232.78452775650305 L 172.69869987849648 221.78452775650305 M 172.69869987849648 214.78452775650305 L 172.69869987849648 203.78452775650305" stroke-linecap="round" stroke-linejoin="round" stroke-miterlimit="10" stroke-width="2.5" stroke-dasharray=""/></g></g><g id="sketch-d0408179"><title>Expression 25</title><path fill="#000000" stroke="none" paint-order="stroke fill markers" d="" fill-opacity="0.4"/><g><path fill="none" stroke="#000000" class="dcg-svg-curve" paint-order="fill stroke markers" d=" M 172.69869987849648 200.46657912734747 L 172.69869987849648 200.46657912734747 L 172.69869987849648 60.148630498191864" stroke-linecap="round" stroke-linejoin="round" stroke-miterlimit="10" stroke-width="2.5" stroke-dasharray=""/></g></g><g id="sketch-d0408179"><title>Expression 31</title><path fill="#c74440" stroke="none" paint-order="stroke fill markers" d="" fill-opacity="0.4"/><g><path fill="none" stroke="#c74440" class="dcg-svg-curve" paint-order="fill stroke markers" d=" M 216.7217891980735 222.63218486982586 L 216.7217891980735 222.63218486982586 L 254.45586575771097 241.6312755062359" stroke-linecap="round" stroke-linejoin="round" stroke-miterlimit="10" stroke-width="2.5" stroke-dasharray=""/></g><path fill="#c74440" stroke="none" paint-order="stroke fill markers" d="" fill-opacity="0.4"/><g><path fill="none" stroke="#c74440" class="dcg-svg-curve" paint-order="fill stroke markers" d=" M 223.0180740114222 219.88372825184746 L 223.0180740114222 219.88372825184746 L 265.9148820711921 231.20398396420512" stroke-linecap="round" stroke-linejoin="round" stroke-miterlimit="10" stroke-width="2.5" stroke-dasharray=""/></g><path fill="#c74440" stroke="none" paint-order="stroke fill markers" d="" fill-opacity="0.4"/><g><path fill="none" stroke="#c74440" class="dcg-svg-curve" paint-order="fill stroke markers" d=" M 227.9816776420555 216.61147821450146 L 227.9816776420555 216.61147821450146 L 274.3453243209307 219.77656509885495" stroke-linecap="round" stroke-linejoin="round" stroke-miterlimit="10" stroke-width="2.5" stroke-dasharray=""/></g><path fill="#c74440" stroke="none" paint-order="stroke fill markers" d="" fill-opacity="0.4"/><g><path fill="none" stroke="#c74440" class="dcg-svg-curve" paint-order="fill stroke markers" d=" M 231.48927204405578 212.9019772623224 L 231.48927204405578 212.9019772623224 L 279.4635492464835 207.7091184068679" stroke-linecap="round" stroke-linejoin="round" stroke-miterlimit="10" stroke-width="2.5" stroke-dasharray=""/></g><path fill="#c74440" stroke="none" paint-order="stroke fill markers" d="" fill-opacity="0.4"/><g><path fill="none" stroke="#c74440" class="dcg-svg-curve" paint-order="fill stroke markers" d=" M 233.43168031205659 208.85127388774484 L 233.43168031205659 208.85127388774484 L 281.1166425978246 195.3849699664567" stroke-linecap="round" stroke-linejoin="round" stroke-miterlimit="10" stroke-width="2.5" stroke-dasharray=""/></g><path fill="#c74440" stroke="none" paint-order="stroke fill markers" d="" fill-opacity="0.4"/><g><path fill="none" stroke="#c74440" class="dcg-svg-curve" paint-order="fill stroke markers" d=" M 233.71661936394742 204.56635429394896 L 233.71661936394742 204.56635429394896 L 279.28763995977215 183.19467516076477" stroke-linecap="round" stroke-linejoin="round" stroke-miterlimit="10" stroke-width="2.5" stroke-dasharray=""/></g><path fill="#c74440" stroke="none" paint-order="stroke fill markers" d="" fill-opacity="0.4"/><g><path fill="none" stroke="#c74440" class="dcg-svg-curve" paint-order="fill stroke markers" d=" M 232.2731376608417 200.1661795605896 L 232.2731376608417 200.1661795605896 L 274.0944084619446 171.519863962805" stroke-linecap="round" stroke-linejoin="round" stroke-miterlimit="10" stroke-width="2.5" stroke-dasharray=""/></g><path fill="#c74440" stroke="none" paint-order="stroke fill markers" d="" fill-opacity="0.4"/><g><path fill="none" stroke="#c74440" class="dcg-svg-curve" paint-order="fill stroke markers" d=" M 229.05750660797898 195.78198023911088 L 229.05750660797898 195.78198023911088 L 265.78232987137375 160.71773613432097" stroke-linecap="round" stroke-linejoin="round" stroke-miterlimit="10" stroke-width="2.5" stroke-dasharray=""/></g><path fill="#c74440" stroke="none" paint-order="stroke fill markers" d="" fill-opacity="0.4"/><g><path fill="none" stroke="#c74440" class="dcg-svg-curve" paint-order="fill stroke markers" d=" M 224.06013593482425 191.55650909861748 L 224.06013593482425 191.55650909861748 L 254.71125808280777 151.10696777200732" stroke-linecap="round" stroke-linejoin="round" stroke-miterlimit="10" stroke-width="2.5" stroke-dasharray=""/></g><path fill="#c74440" stroke="none" paint-order="stroke fill markers" d="" fill-opacity="0.4"/><g><path fill="none" stroke="#c74440" class="dcg-svg-curve" paint-order="fill stroke markers" d=" M 217.31292511838603 187.64203053843218 L 217.31292511838603 187.64203053843218 L 241.3375251124133 142.955701612359" stroke-linecap="round" stroke-linejoin="round" stroke-miterlimit="10" stroke-width="2.5" stroke-dasharray=""/></g><path fill="#c74440" stroke="none" paint-order="stroke fill markers" d="" fill-opacity="0.4"/><g><path fill="none" stroke="#c74440" class="dcg-svg-curve" paint-order="fill stroke markers" d=" M 208.89634826904043 184.19692652730228 L 208.89634826904043 184.19692652730228 L 226.1920215450884 136.47216723437955" stroke-linecap="round" stroke-linejoin="round" stroke-miterlimit="10" stroke-width="2.5" stroke-dasharray=""/></g><path fill="#c74440" stroke="none" paint-order="stroke fill markers" d="" fill-opacity="0.4"/><g><path fill="none" stroke="#c74440" class="dcg-svg-curve" paint-order="fill stroke markers" d=" M 198.94550924384654 181.38091644645598 L 198.94550924384654 181.38091644645598 L 209.85556541424648 131.79832191016027" stroke-linecap="round" stroke-linejoin="round" stroke-miterlimit="10" stroke-width="2.5" stroke-dasharray=""/></g><path fill="#c74440" stroke="none" paint-order="stroke fill markers" d="" fill-opacity="0.4"/><g><path fill="none" stroke="#c74440" class="dcg-svg-curve" paint-order="fill stroke markers" d=" M 187.6544036244723 179.3490131829292 L 187.6544036244723 179.3490131829292 L 192.93288729952255 129.00672821909853" stroke-linecap="round" stroke-linejoin="round" stroke-miterlimit="10" stroke-width="2.5" stroke-dasharray=""/></g><path fill="#c74440" stroke="none" paint-order="stroke fill markers" d="" fill-opacity="0.4"/><g><path fill="none" stroke="#c74440" class="dcg-svg-curve" paint-order="fill stroke markers" d=" M 175.2776867480288 178.2444607892607 L 175.2776867480288 178.2444607892607 L 176.02659340570267 128.10070162281352" stroke-linecap="round" stroke-linejoin="round" stroke-miterlimit="10" stroke-width="2.5" stroke-dasharray=""/></g><path fill="#c74440" stroke="none" paint-order="stroke fill markers" d="" fill-opacity="0.4"/><g><path fill="none" stroke="#c74440" class="dcg-svg-curve" paint-order="fill stroke markers" d=" M 162.12936976665847 178.1910104867586 L 162.12936976665847 178.1910104867586 L 159.7124220449804 129.01758132520473" stroke-linecap="round" stroke-linejoin="round" stroke-miterlimit="10" stroke-width="2.5" stroke-dasharray=""/></g><path fill="#c74440" stroke="none" paint-order="stroke fill markers" d="" fill-opacity="0.4"/><g><path fill="none" stroke="#c74440" class="dcg-svg-curve" paint-order="fill stroke markers" d=" M 148.5780418087684 179.28498285791326 L 148.5780418087684 179.28498285791326 L 144.51698688848452 131.63481187838258" stroke-linecap="round" stroke-linejoin="round" stroke-miterlimit="10" stroke-width="2.5" stroke-dasharray=""/></g><path fill="#c74440" stroke="none" paint-order="stroke fill markers" d="" fill-opacity="0.4"/><g><path fill="none" stroke="#c74440" class="dcg-svg-curve" paint-order="fill stroke markers" d=" M 135.03843473850688 181.5876271345595 L 135.03843473850688 181.5876271345595 L 130.89901192273373 135.7783810276157" stroke-linecap="round" stroke-linejoin="round" stroke-miterlimit="10" stroke-width="2.5" stroke-dasharray=""/></g><path fill="#c74440" stroke="none" paint-order="stroke fill markers" d="" fill-opacity="0.4"/><g><path fill="none" stroke="#c74440" class="dcg-svg-curve" paint-order="fill stroke markers" d=" M 121.9593934391138 185.11831775881075 L 121.9593934391138 185.11831775881075 L 119.23482165225258 141.23304939778671" stroke-linecap="round" stroke-linejoin="round" stroke-miterlimit="10" stroke-width="2.5" stroke-dasharray=""/></g><path fill="#c74440" stroke="none" paint-order="stroke fill markers" d="" fill-opacity="0.4"/><g><path fill="none" stroke="#c74440" class="dcg-svg-curve" paint-order="fill stroke markers" d=" M 109.80857227910072 189.8491203610374 L 109.80857227910072 189.8491203610374 L 109.80857227910072 147.75373577229072" stroke-linecap="round" stroke-linejoin="round" stroke-miterlimit="10" stroke-width="2.5" stroke-dasharray=""/></g><path fill="#c74440" stroke="none" paint-order="stroke fill markers" d="" fill-opacity="0.4"/><g><path fill="none" stroke="#c74440" class="dcg-svg-curve" paint-order="fill stroke markers" d=" M 99.05442951234716 195.7012130069879 L 99.05442951234716 195.7012130069879 L 102.80741391902451 155.07739128634938" stroke-linecap="round" stroke-linejoin="round" stroke-miterlimit="10" stroke-width="2.5" stroke-dasharray=""/></g><path fill="#c74440" stroke="none" paint-order="stroke fill markers" d="" fill-opacity="0.4"/><g><path fill="none" stroke="#c74440" class="dcg-svg-curve" paint-order="fill stroke markers" d=" M 90.14631785873985 202.54356572555685 L 90.14631785873985 202.54356572555685 L 98.32147969225991 162.93470747047664" stroke-linecap="round" stroke-linejoin="round" stroke-miterlimit="10" stroke-width="2.5" stroke-dasharray=""/></g><path fill="#c74440" stroke="none" paint-order="stroke fill markers" d="" fill-opacity="0.4"/><g><path fill="none" stroke="#c74440" class="dcg-svg-curve" paint-order="fill stroke markers" d=" M 83.49365469479466 210.19416624533935 L 83.49365469479466 210.19416624533935 L 96.34832352865196 171.0610545948602" stroke-linecap="round" stroke-linejoin="round" stroke-miterlimit="10" stroke-width="2.5" stroke-dasharray=""/></g><path fill="#c74440" stroke="none" paint-order="stroke fill markers" d="" fill-opacity="0.4"/><g><path fill="none" stroke="#c74440" class="dcg-svg-curve" paint-order="fill stroke markers" d=" M 79.44528485498942 218.42393918966516 L 79.44528485498942 218.42393918966516 L 96.80119174911539 179.20613346552315" stroke-linecap="round" stroke-linejoin="round" stroke-miterlimit="10" stroke-width="2.5" stroke-dasharray=""/></g><path fill="#c74440" stroke="none" paint-order="stroke fill markers" d="" fill-opacity="0.4"/><g><path fill="none" stroke="#c74440" class="dcg-svg-curve" paint-order="fill stroke markers" d=" M 78.27021214824704 226.96334827941075 L 78.27021214824704 226.96334827941075 L 99.5203280420193 187.14193877526532" stroke-linecap="round" stroke-linejoin="round" stroke-miterlimit="10" stroke-width="2.5" stroke-dasharray=""/></g><path fill="#c74440" stroke="none" paint-order="stroke fill markers" d="" fill-opacity="0.4"/><g><path fill="none" stroke="#c74440" class="dcg-svg-curve" paint-order="fill stroke markers" d=" M 80.14086571816532 235.5115063158105 L 80.14086571816532 235.5115063158105 L 104.28638767303431 194.66876667018482" stroke-linecap="round" stroke-linejoin="round" stroke-miterlimit="10" stroke-width="2.5" stroke-dasharray=""/></g><path fill="#c74440" stroke="none" paint-order="stroke fill markers" d="" fill-opacity="0.4"/><g><path fill="none" stroke="#c74440" class="dcg-svg-curve" paint-order="fill stroke markers" d=" M 85.11998247309245 243.74745652584053 L 85.11998247309245 243.74745652584053 L 110.83498056154075 201.6191436101175" stroke-linecap="round" stroke-linejoin="round" stroke-miterlimit="10" stroke-width="2.5" stroke-dasharray=""/></g><path fill="#c74440" stroke="none" paint-order="stroke fill markers" d="" fill-opacity="0.4"/><g><path fill="none" stroke="#c74440" class="dcg-svg-curve" paint-order="fill stroke markers" d=" M 93.15203010340561 251.34314192407479 L 93.15203010340561 251.34314192407479 L 118.87137539294832 207.85969771469033" stroke-linecap="round" stroke-linejoin="round" stroke-miterlimit="10" stroke-width="2.5" stroke-dasharray=""/></g><path fill="#c74440" stroke="none" paint-order="stroke fill markers" d="" fill-opacity="0.4"/><g><path fill="none" stroke="#c74440" class="dcg-svg-curve" paint-order="fill stroke markers" d=" M 104.05987464457968 257.97745664233594 L 104.05987464457968 257.97745664233594 L 128.0844746386069 213.29112771626276" stroke-linecap="round" stroke-linejoin="round" stroke-miterlimit="10" stroke-width="2.5" stroke-dasharray=""/></g><path fill="#c74440" stroke="none" paint-order="stroke fill markers" d="" fill-opacity="0.4"/><g><path fill="none" stroke="#c74440" class="dcg-svg-curve" paint-order="fill stroke markers" d=" M 117.54712446839557 263.35068328122446 L 117.54712446839557 263.35068328122446 L 138.15930523146147 217.8465394664836" stroke-linecap="round" stroke-linejoin="round" stroke-miterlimit="10" stroke-width="2.5" stroke-dasharray=""/></g><path fill="#c74440" stroke="none" paint-order="stroke fill markers" d="" fill-opacity="0.4"/><g><path fill="none" stroke="#c74440" class="dcg-svg-curve" paint-order="fill stroke markers" d=" M 133.2062749413458 267.1985698478394 L 133.2062749413458 267.1985698478394 L 148.78744991454704 221.48850830493421" stroke-linecap="round" stroke-linejoin="round" stroke-miterlimit="10" stroke-width="2.5" stroke-dasharray=""/></g><path fill="#c74440" stroke="none" paint-order="stroke fill markers" d="" fill-opacity="0.4"/><g><path fill="none" stroke="#c74440" class="dcg-svg-curve" paint-order="fill stroke markers" d=" M 150.53245333894048 269.30529292254045 L 150.53245333894048 269.30529292254045 L 159.67505525105057 224.2052821848217" stroke-linecap="round" stroke-linejoin="round" stroke-miterlimit="10" stroke-width="2.5" stroke-dasharray=""/></g><path fill="#c74440" stroke="none" paint-order="stroke fill markers" d="" fill-opacity="0.4"/><g><path fill="none" stroke="#c74440" class="dcg-svg-curve" paint-order="fill stroke markers" d=" M 168.94224192502844 269.51459175861265 L 168.94224192502844 269.51459175861265 L 170.548277435226 226.00656233870305" stroke-linecap="round" stroke-linejoin="round" stroke-miterlimit="10" stroke-width="2.5" stroke-dasharray=""/></g><path fill="#c74440" stroke="none" paint-order="stroke fill markers" d="" fill-opacity="0.4"/><g><path fill="none" stroke="#c74440" class="dcg-svg-curve" paint-order="fill stroke markers" d=" M 187.79675849582972 267.7384396047985 L 187.79675849582972 267.7384396047985 L 181.1562492065173 226.91928509262812" stroke-linecap="round" stroke-linejoin="round" stroke-miterlimit="10" stroke-width="2.5" stroke-dasharray=""/></g><path fill="#c74440" stroke="none" paint-order="stroke fill markers" d="" fill-opacity="0.4"/><g><path fill="none" stroke="#c74440" class="dcg-svg-curve" paint-order="fill stroke markers" d=" M 206.42791705578003 263.9627393878236 L 206.42791705578003 263.9627393878236 L 191.27185376095292 226.98378238527042" stroke-linecap="round" stroke-linejoin="round" stroke-miterlimit="10" stroke-width="2.5" stroke-dasharray=""/></g><path fill="#c74440" stroke="none" paint-order="stroke fill markers" d="" fill-opacity="0.4"/><g><path fill="none" stroke="#c74440" class="dcg-svg-curve" paint-order="fill stroke markers" d=" M 224.16659310577515 258.2496841808568 L 224.16659310577515 258.2496841808568 L 200.69075974697012 226.25062416635788" stroke-linecap="round" stroke-linejoin="round" stroke-miterlimit="10" stroke-width="2.5" stroke-dasharray=""/></g><path fill="#c74440" stroke="none" paint-order="stroke fill markers" d="" fill-opacity="0.4"/><g><path fill="none" stroke="#c74440" class="dcg-svg-curve" paint-order="fill stroke markers" d=" M 240.37129122453564 250.73659966135313 L 240.37129122453564 250.73659966135313 L 209.22929319808395 224.7783496914393" stroke-linecap="round" stroke-linejoin="round" stroke-miterlimit="10" stroke-width="2.5" stroke-dasharray=""/></g></g><g id="sketch-d0408179"><title>Expression 33</title><path fill="#000000" stroke="none" paint-order="stroke fill markers" d="" fill-opacity="0.4"/><g><path fill="none" stroke="#000000" class="dcg-svg-curve" paint-order="fill stroke markers" d=" M 254.45586575771097 241.6312755062359 L 254.45586575771097 241.6312755062359 L 258.04509195941773 238.7504522388241 L 261.4052879627568 235.7669687304914 L 264.5265982217884 232.68847512517286 L 267.399948993532 229.52292747918767 L 270.0170799114617 226.2785602545009 L 272.37057238100203 222.9638577596617 L 274.4538746813546 219.58752465868946 L 276.26132367297544 216.15845567225233 L 277.7881630254852 212.68570459895383 L 279.0305578966372 209.17845278739998 L 279.9856060091286 205.64597719194342 L 280.5121048823689 202.98568471144065 L 280.8753685668484 200.32041054908308 L 281.07521640708745 197.65411022152549 L 281.111766071132 194.9907336945674 L 280.9854323877479 192.33421774445785 L 280.69692554061857 189.68847837125492 L 280.2472486259028 187.0574032819252 L 279.63769458111176 184.44484446063905 L 278.57902807268755 180.9968120273175 L 277.2434955345999 177.59734941332422 L 275.6364867203125 174.2551545490988 L 273.764236645744 170.97870816625834 L 271.6337982113729 167.776246035947 L 269.2530118434246 164.6557323256386 L 266.63047230168195 161.62483417870808 L 263.7754928134613 158.6908976149131 L 259.8951854698472 155.17046209772036 L 255.68826356996277 151.8253120235163 L 251.17706773740989 148.66736617457445 L 246.3852292133862 145.70754045791594 L 241.3375251124133 142.955701612359 L 236.05972852333701 140.42062774756508 L 230.57845450980753 138.10997589184961 L 224.92100308242692 136.03025667346228 L 219.1152002243756 134.18681620749368 L 213.1892380535839 132.5838252079664 L 207.17151519744908 131.22427529243924 L 201.09047844083062 130.1099823950058 L 194.9744666847826 129.24159715332019 L 188.85155822244587 128.6186220866171 L 182.74942230004822 128.23943533500443 L 176.69517588542158 128.10132068594132 L 170.71524651427578 128.20050357212628 L 164.83524202615348 128.53219268631017 L 159.07982793806846 129.09062682311742 L 153.4726131348744 129.86912652605363 L 148.03604448203913 130.8601500897331 L 142.7913108893655 132.0553534431622 L 137.75825727397162 133.44565341982826 L 132.9553087882265 135.02129390448664 L 128.399405594037 136.77191433499667 L 124.10594837962665 138.68662003038054 L 120.08875472945243 140.75405381347446 L 116.3600263728988 142.96246839808487 L 112.9303272535732 145.29979901638467 L 109.80857227910072 147.75373577229072 L 107.00202653194772 150.3117952206116 L 104.51631464563764 152.9613906896799 L 102.35543997836868 155.68990088677776 L 100.5218131480719 158.4847363507031 L 99.01628942989018 161.33340334403778 L 98.04771436048586 163.6427983818004 L 97.28772568011757 165.9725254261533 L 96.73473755790279 168.31646988646628 L 96.38660842124419 170.66863976784043 L 96.24066381252743 173.0231814769159 L 96.29372064258385 175.37439453498934 L 96.54211268193043 177.71674516142176 L 96.98171712796207 180.04487869729283 L 97.60798208439498 182.35363084628045 L 98.41595478834627 184.63803771678272 L 99.67330209608829 187.45208789309316 L 101.1950773952142 190.21187718510168 L 102.96938853794005 192.9091457743697 L 105.41419952914076 196.05254378246417 L 108.18181661379774 199.08264898486493 L 111.24853840472822 201.98845291046453 L 114.5899211501904 204.76014969640428 L 118.18098435805939 207.3891259520905 L 121.99640628447918 209.8679400136612 L 126.01070752477321 212.19029156668194 L 130.91145282142 214.695075108644 L 136.00810749925904 216.97341930981545 L 141.2611491819661 219.02072062894652 L 146.63192203013446 220.83409027832448 L 152.0828519982421 222.41221929170547 L 157.57761945505231 223.75523884373462 L 163.86628552440607 225.00411838791393 L 170.11684930560614 225.95179914725068 L 176.28214401850693 226.60397866531753 L 182.3176396771802 226.96783625641848 L 188.1814015620065 227.0518183333591 L 193.83399545209875 226.8654538135028 L 199.23835255595245 226.4192032768829 L 204.35960782089344 225.7243441822589 L 209.1649256263385 224.79289303922823 L 213.62332676757995 223.6375640247671 L 217.2167897457336 222.4535221093892 L 220.5035749781237 221.11775404701177 L 223.46592289065924 219.64013213019933 L 226.08691410408898 218.03100896735913 L 228.35046547434646 216.30126088821186 L 229.9945950013174 214.73127361781954 L 231.35585753015204 213.08863622221506 L 232.42572134431194 211.38127900752266 L 233.19622895095324 209.6175128358156 L 233.60433905049373 208.11088933679673 L 233.79559513537748 206.57639513367374 L 233.7664987868236 205.01949582094502 L 233.51395716200122 203.44586491958628 L 233.03532072943293 201.861384755185 L 232.32842342617005 200.2721450930254 L 231.17657215968975 198.3676500297375 L 229.69194906789215 196.47662226359105 L 227.8741022532255 194.61069457609452 L 225.72398447786222 192.7818519708019 L 223.24406484866884 191.00239011148668 L 220.4384375038614 189.2848645230374 L 216.76141589404887 187.37639014725858 L 212.66146769294264 185.5900534110341 L 208.15455469304118 183.94639398018538 L 203.2603570326002 182.4658315758207 L 198.00239097122582 181.16845604969564 L 192.40808455129283 180.0738008296264 L 186.5088060671809 179.20060257188882 L 180.3398409196245 178.56655028486296 L 173.94031319507522 178.18802756611245 L 167.35304916766913 178.07985191553405 L 160.62438086007305 178.25501534303592 L 153.8038888033902 178.7244306743603 L 146.94408418828792 179.49668806831758 L 141.07464177540209 180.40431156154835 L 135.25267331827513 181.54110919642474 L 129.5150355178938 182.9076996128027 L 123.89926249924383 184.50304752757333 L 118.4433040931898 186.32439969558916 L 113.18524826468709 188.36723422697372 L 108.16303003423269 190.6252243759398 L 103.41412947784313 193.09021778002474 L 99.69201499707988 195.2953593872188 L 96.20590813269004 197.6306109086802 L 92.97584840749012 200.08836450758648 L 90.0210994742222 202.6601641048274 L 87.36002291607429 205.33672868847043 L 85.00995413239161 208.10798159001612 L 82.98708125012239 210.96308567680452 L 81.30632799854128 213.8904843625499 L 80.21720418570206 216.27625859497198 L 79.36199295755856 218.69393651229933 L 78.74631113361262 221.13673243772195 L 78.3751039527352 223.59764498119912 L 78.25261616602232 226.06947825678978 L 78.38236539707329 228.54486427794217 L 78.76711792561427 231.0162864510575 L 79.40886704092024 233.476104081191 L 80.30881410116419 235.91657779768428 L 81.46735242369365 238.3298958018462 L 82.8840541193527 240.70820083356938 L 84.55765997138828 243.04361774900232 L 87.00766313576612 245.8905989892939 L 89.84979266965725 248.64301297425013 L 93.07604581631769 251.28577340187812 L 96.67637668064677 253.80406419775386 L 100.63872132780807 256.18342745905824 L 104.94903566494102 258.4098506308477 L 109.59134603363105 260.46985231305393 L 114.54781234718232 262.3505660991825 L 119.79880351348419 264.0398218548245 L 125.32298479212096 265.526223855872 L 131.09741664411618 266.7992252226976 L 137.09766454504648 267.8491981073949 L 143.297919147945 268.66749911636566 L 149.67112610211922 269.24652947988744 L 156.18912475842097 269.5797895136064 L 162.82279492123808 269.66192695392226 L 169.54221074313324 269.4887787896923 L 176.31680080016417 269.05740625627726 L 183.11551333499045 268.36612270435023 L 189.90698561132356 267.4145141047315 L 196.65971628750026 266.2034520014277 L 203.34223968926028 264.73509877764104 L 209.92330084244307 263.01290515336524 L 216.3720301154607 261.0415998878815 L 222.6581163191773 258.82717171557306 L 228.75197711825396 256.3768435985662 L 234.62492562309757 253.69903943433573 L 240.24933205515936 250.8033434101585 L 245.59877941031453 247.70045224873067 L 250.648212085161 244.40212063997137 L 254.45586575771097 241.6312755062359" stroke-linecap="round" stroke-linejoin="round" stroke-miterlimit="10" stroke-width="2.5" stroke-dasharray=""/></g></g><g id="sketch-d0408179"><title>Expression 46</title><path fill="#fa7e19" stroke="none" class="dcg-svg-region" paint-order="stroke fill markers" d=" M 254.45586575771097 241.6312755062359 L 216.7217891980735 222.63218486982586 L 223.18966124366125 219.92900927469688 L 265.9148820711921 231.20398396420512 L 254.45586575771097 241.6312755062359 L 254.45586575771097 241.6312755062359" fill-opacity="0.4"/><path fill="#fa7e19" stroke="none" class="dcg-svg-region" paint-order="stroke fill markers" d=" M 265.9148820711921 231.20398396420512 L 223.0180740114222 219.88372825184746 L 228.167132228771 216.62413856203887 L 274.3453243209307 219.77656509885495 L 265.9148820711921 231.20398396420512 L 265.9148820711921 231.20398396420512" fill-opacity="0.4"/><path fill="#fa7e19" stroke="none" class="dcg-svg-region" paint-order="stroke fill markers" d=" M 274.3453243209307 219.77656509885495 L 227.9816776420555 216.61147821450146 L 231.6811691528655 212.88120582690055 L 279.4635492464835 207.7091184068679 L 274.3453243209307 219.77656509885495 L 274.3453243209307 219.77656509885495" fill-opacity="0.4"/><path fill="#fa7e19" stroke="none" class="dcg-svg-region" paint-order="stroke fill markers" d=" M 279.4635492464835 207.7091184068679 L 231.48927204405578 212.9019772623224 L 233.43168031205659 208.85127388774484 L 281.1166425978246 195.3849699664567 L 279.4635492464835 207.7091184068679 L 279.4635492464835 207.7091184068679" fill-opacity="0.4"/><path fill="#fa7e19" stroke="none" class="dcg-svg-region" paint-order="stroke fill markers" d=" M 281.1166425978246 195.3849699664567 L 233.43168031205659 208.85127388774484 L 233.71661936394742 204.56635429394896 L 279.28763995977215 183.19467516076477 L 281.1166425978246 195.3849699664567 L 281.1166425978246 195.3849699664567" fill-opacity="0.4"/><path fill="#fa7e19" stroke="none" class="dcg-svg-region" paint-order="stroke fill markers" d=" M 279.28763995977215 183.19467516076477 L 233.71661936394742 204.56635429394896 L 232.2731376608417 200.1661795605896 L 274.0944084619446 171.519863962805 L 279.28763995977215 183.19467516076477 L 279.28763995977215 183.19467516076477" fill-opacity="0.4"/><path fill="#fa7e19" stroke="none" class="dcg-svg-region" paint-order="stroke fill markers" d=" M 274.0944084619446 171.519863962805 L 232.195962515573 200.06095877687412 L 229.05750660797898 195.78198023911088 L 265.78232987137375 160.71773613432097 L 274.0944084619446 171.519863962805 L 274.0944084619446 171.519863962805" fill-opacity="0.4"/><path fill="#fa7e19" stroke="none" class="dcg-svg-region" paint-order="stroke fill markers" d=" M 265.78232987137375 160.71773613432097 L 228.95755919451588 195.69747081630103 L 224.06013593482425 191.55650909861748 L 254.71125808280777 151.10696777200732 L 265.78232987137375 160.71773613432097 L 265.78232987137375 160.71773613432097" fill-opacity="0.4"/><path fill="#fa7e19" stroke="none" class="dcg-svg-region" paint-order="stroke fill markers" d=" M 254.71125808280777 151.10696777200732 L 223.92519171849548 191.47821952741376 L 217.31292511838603 187.64203053843218 L 241.3375251124133 142.955701612359 L 254.71125808280777 151.10696777200732 L 254.71125808280777 151.10696777200732" fill-opacity="0.4"/><path fill="#fa7e19" stroke="none" class="dcg-svg-region" paint-order="stroke fill markers" d=" M 241.3375251124133 142.955701612359 L 217.2119261961939 187.60068929029862 L 208.89634826904043 184.19692652730228 L 226.1920215450884 136.47216723437955 L 241.3375251124133 142.955701612359 L 241.3375251124133 142.955701612359" fill-opacity="0.4"/><path fill="#fa7e19" stroke="none" class="dcg-svg-region" paint-order="stroke fill markers" d=" M 226.1920215450884 136.47216723437955 L 208.8167415568389 184.17439844665552 L 198.94550924384654 181.38091644645598 L 209.85556541424648 131.79832191016027 L 226.1920215450884 136.47216723437955 L 226.1920215450884 136.47216723437955" fill-opacity="0.4"/><path fill="#fa7e19" stroke="none" class="dcg-svg-region" paint-order="stroke fill markers" d=" M 209.85556541424648 131.79832191016027 L 198.85518039889155 181.36466122034778 L 187.6544036244723 179.3490131829292 L 192.93288729952255 129.00672821909853 L 209.85556541424648 131.79832191016027 L 209.85556541424648 131.79832191016027" fill-opacity="0.4"/><path fill="#fa7e19" stroke="none" class="dcg-svg-region" paint-order="stroke fill markers" d=" M 192.93288729952255 129.00672821909853 L 187.60489675696653 179.34459497335453 L 175.2776867480288 178.2444607892607 L 176.02659340570267 128.10070162281352 L 192.93288729952255 129.00672821909853 L 192.93288729952255 129.00672821909853" fill-opacity="0.4"/><path fill="#fa7e19" stroke="none" class="dcg-svg-region" paint-order="stroke fill markers" d=" M 176.02659340570267 128.10070162281352 L 175.2250934801033 178.2442469880507 L 162.12936976665847 178.1910104867586 L 159.7776787304233 129.01391380639518 L 176.02659340570267 128.10070162281352 L 176.02659340570267 128.10070162281352" fill-opacity="0.4"/><path fill="#fa7e19" stroke="none" class="dcg-svg-region" paint-order="stroke fill markers" d=" M 159.7124220449804 129.01758132520473 L 162.0751644548269 178.19538637624322 L 148.5780418087684 179.28498285791326 L 144.57776862911052 131.62434295616987 L 159.7124220449804 129.01758132520473 L 159.7124220449804 129.01758132520473" fill-opacity="0.4"/><path fill="#fa7e19" stroke="none" class="dcg-svg-region" paint-order="stroke fill markers" d=" M 144.51698688848452 131.63481187838258 L 148.52388338048738 179.29419343501985 L 135.03843473850688 181.5876271345595 L 130.95348382259675 135.76180675101875 L 144.51698688848452 131.63481187838258 L 144.51698688848452 131.63481187838258" fill-opacity="0.4"/><path fill="#fa7e19" stroke="none" class="dcg-svg-region" paint-order="stroke fill markers" d=" M 130.89901192273373 135.7783810276157 L 134.9861185733093 181.60174989705652 L 121.9593934391138 185.11831775881075 L 119.32813517441643 141.18941205082535 L 130.89901192273373 135.7783810276157 L 130.89901192273373 135.7783810276157" fill-opacity="0.4"/><path fill="#fa7e19" stroke="none" class="dcg-svg-region" paint-order="stroke fill markers" d=" M 119.23482165225258 141.23304939778671 L 121.91079015447374 185.13724096921965 L 109.80857227910072 189.8491203610374 L 109.88398227408592 147.70157028129466 L 119.23482165225258 141.23304939778671 L 119.23482165225258 141.23304939778671" fill-opacity="0.4"/><path fill="#fa7e19" stroke="none" class="dcg-svg-region" paint-order="stroke fill markers" d=" M 109.80857227910072 147.75373577229072 L 109.72253913696669 189.895937102205 L 99.05442951234716 195.7012130069879 L 102.89142781934541 154.98950742018067 L 109.80857227910072 147.75373577229072 L 109.80857227910072 147.75373577229072" fill-opacity="0.4"/><path fill="#fa7e19" stroke="none" class="dcg-svg-region" paint-order="stroke fill markers" d=" M 102.80741391902451 155.07739128634938 L 98.9831646191183 195.75595182873647 L 90.14631785873985 202.54356572555685 L 98.48297332442344 162.65184408784805 L 102.80741391902451 155.07739128634938 L 102.80741391902451 155.07739128634938" fill-opacity="0.4"/><path fill="#fa7e19" stroke="none" class="dcg-svg-region" paint-order="stroke fill markers" d=" M 98.32147969225991 162.93470747047664 L 90.01326459546092 202.6965777359525 L 83.49365469479466 210.19416624533935 L 96.67192113948367 169.72833366646128 L 98.32147969225991 162.93470747047664 L 98.32147969225991 162.93470747047664" fill-opacity="0.4"/><path fill="#fa7e19" stroke="none" class="dcg-svg-region" paint-order="stroke fill markers" d=" M 96.34832352865196 171.0610545948602 L 83.15359162825102 210.88546717266271 L 79.44528485498942 218.42393918966516 L 96.78669996606057 178.94549094166194 L 96.34832352865196 171.0610545948602 L 96.34832352865196 171.0610545948602" fill-opacity="0.4"/><path fill="#fa7e19" stroke="none" class="dcg-svg-region" paint-order="stroke fill markers" d=" M 96.80119174911539 179.20613346552315 L 79.38888136506579 218.83383082597294 L 78.27021214824704 226.96334827941075 L 99.46594531616122 186.98322266907047 L 96.80119174911539 179.20613346552315 L 96.80119174911539 179.20613346552315" fill-opacity="0.4"/><path fill="#fa7e19" stroke="none" class="dcg-svg-region" paint-order="stroke fill markers" d=" M 99.5203280420193 187.14193877526532 L 78.3076252196454 227.13431144013876 L 80.14086571816532 235.5115063158105 L 104.21013071893807 194.54833742386612 L 99.5203280420193 187.14193877526532 L 99.5203280420193 187.14193877526532" fill-opacity="0.4"/><path fill="#fa7e19" stroke="none" class="dcg-svg-region" paint-order="stroke fill markers" d=" M 104.28638767303431 194.66876667018482 L 80.22053158624415 235.64328151917096 L 85.11998247309245 243.74745652584053 L 110.75639744687868 201.5357390868383 L 104.28638767303431 194.66876667018482 L 104.28638767303431 194.66876667018482" fill-opacity="0.4"/><path fill="#fa7e19" stroke="none" class="dcg-svg-region" paint-order="stroke fill markers" d=" M 110.83498056154075 201.6191436101175 L 85.21636704465621 243.83860475061937 L 93.15203010340561 251.34314192407479 L 118.77493865497144 207.78481106543543 L 110.83498056154075 201.6191436101175 L 110.83498056154075 201.6191436101175" fill-opacity="0.4"/><path fill="#fa7e19" stroke="none" class="dcg-svg-region" paint-order="stroke fill markers" d=" M 118.87137539294832 207.8596977146903 L 93.23929285973499 251.39621644182085 L 104.05987464457968 257.97745664233594 L 127.973917447659 213.2259505562439 L 118.87137539294832 207.8596977146903 L 118.87137539294832 207.8596977146903" fill-opacity="0.4"/><path fill="#fa7e19" stroke="none" class="dcg-svg-region" paint-order="stroke fill markers" d=" M 128.0844746386069 213.29112771626276 L 104.05987464457968 257.97745664233594 L 117.54712446839557 263.35068328122446 L 138.15930523146147 217.8465394664836 L 128.0844746386069 213.29112771626276 L 128.0844746386069 213.29112771626276" fill-opacity="0.4"/><path fill="#fa7e19" stroke="none" class="dcg-svg-region" paint-order="stroke fill markers" d=" M 138.15930523146147 217.8465394664836 L 117.54712446839557 263.35068328122446 L 133.2062749413458 267.1985698478394 L 148.70242475708238 221.45937255422663 L 138.15930523146147 217.8465394664836 L 138.15930523146147 217.8465394664836" fill-opacity="0.4"/><path fill="#fa7e19" stroke="none" class="dcg-svg-region" paint-order="stroke fill markers" d=" M 148.78744991454704 221.48850830493421 L 133.2062749413458 267.1985698478394 L 150.53245333894048 269.30529292254045 L 159.58795440835854 224.1835479937826 L 148.78744991454704 221.48850830493421 L 148.78744991454704 221.48850830493421" fill-opacity="0.4"/><path fill="#fa7e19" stroke="none" class="dcg-svg-region" paint-order="stroke fill markers" d=" M 159.67505525105057 224.2052821848217 L 150.53245333894048 269.30529292254045 L 168.94224192502844 269.51459175861265 L 170.4612916577526 225.992152097472 L 159.67505525105057 224.2052821848217 L 159.67505525105057 224.2052821848217" fill-opacity="0.4"/><path fill="#fa7e19" stroke="none" class="dcg-svg-region" paint-order="stroke fill markers" d=" M 170.548277435226 226.00656233870305 L 168.94224192502844 269.51459175861265 L 187.79675849582972 267.7384396047985 L 181.07138543234694 226.9119833105967 L 170.548277435226 226.00656233870305 L 170.548277435226 226.00656233870305" fill-opacity="0.4"/><path fill="#fa7e19" stroke="none" class="dcg-svg-region" paint-order="stroke fill markers" d=" M 181.1562492065173 226.91928509262812 L 187.79675849582972 267.7384396047985 L 206.42791705578003 263.9627393878236 L 191.1504665062997 226.98300841775873 L 181.1562492065173 226.91928509262812 L 181.1562492065173 226.91928509262812" fill-opacity="0.4"/><path fill="#fa7e19" stroke="none" class="dcg-svg-region" paint-order="stroke fill markers" d=" M 191.27185376095292 226.98378238527042 L 206.49887175997998 263.93988716699573 L 224.16659310577515 258.2496841808568 L 200.54005725119384 226.26235469786047 L 191.27185376095292 226.98378238527042 L 191.27185376095292 226.98378238527042" fill-opacity="0.4"/><path fill="#fa7e19" stroke="none" class="dcg-svg-region" paint-order="stroke fill markers" d=" M 200.69075974697012 226.25062416635788 L 224.29623069072522 258.18957950470076 L 240.37129122453564 250.73659966135313 L 209.05852252906166 224.8077951809377 L 200.69075974697012 226.25062416635788 L 200.69075974697012 226.25062416635788" fill-opacity="0.4"/><path fill="#fa7e19" stroke="none" class="dcg-svg-region" paint-order="stroke fill markers" d=" M 209.22929319808395 224.7783496914393 L 240.483967820801 250.6637570681122 L 254.45586575771097 241.6312755062359 L 216.54196929407377 222.6836928255446 L 209.22929319808395 224.7783496914393 L 209.22929319808395 224.7783496914393" fill-opacity="0.4"/></g></g><path fill="none" stroke="#000000" class="dcg-svg-point" paint-order="fill stroke markers" d=" M 341.85272801223294 178.99763172489347 L 341.85272801223294 179.19763172489345 L 342.052728012233 179.19763172489345 L 342.052728012233 178.99763172489347" stroke-linecap="round" stroke-linejoin="round" stroke-miterlimit="10" stroke-width="8" stroke-dasharray=""/><path fill="none" stroke="#000000" class="dcg-svg-point" paint-order="fill stroke markers" d=" M 110.56385855136332 284.9935931942157 L 110.56385855136332 285.19359319421574 L 110.76385855136331 285.19359319421574 L 110.76385855136331 284.9935931942157" stroke-linecap="round" stroke-linejoin="round" stroke-miterlimit="10" stroke-width="8" stroke-dasharray=""/><g id="labels-d0408179"><g transform="rotate(0,0,0) translate(110.66385855136332,285.0935931942157)"><g class="dcg-svg-label"><g transform="translate(-72.41385855136332,-9.093593194215714)"><g><text fill="none" stroke="#FFF" font-family="arial, sans-serif" font-size="15.4px" font-style="normal" font-weight="400" text-decoration="normal" x="0" y="13.4888" text-anchor="start" stroke-linecap="round" stroke-linejoin="round" stroke-miterlimit="2" stroke-width="3" stroke-dasharray="">left/right</text></g></g><g transform="translate(-72.41385855136332,-9.093593194215714)"><g><text fill="rgb(0, 0, 0)" stroke="none" font-family="arial, sans-serif" font-size="15.4px" font-style="normal" font-weight="400" text-decoration="normal" x="0" y="13.4888" text-anchor="start">left/right</text></g></g></g></g><g transform="rotate(0,0,0) translate(341.95272801223297,179.09763172489346)"><g class="dcg-svg-label"><g transform="translate(-29.054290512232967,-33.09763172489346)"><g><text fill="none" stroke="#FFF" font-family="arial, sans-serif" font-size="15.4px" font-style="normal" font-weight="400" text-decoration="normal" x="0" y="13.4888" text-anchor="start" stroke-linecap="round" stroke-linejoin="round" stroke-miterlimit="2" stroke-width="3" stroke-dasharray="">up/down</text></g></g><g transform="translate(-29.054290512232967,-33.09763172489346)"><g><text fill="rgb(0, 0, 0)" stroke="none" font-family="arial, sans-serif" font-size="15.4px" font-style="normal" font-weight="400" text-decoration="normal" x="0" y="13.4888" text-anchor="start">up/down</text></g></g></g></g><g transform="rotate(0,0,0) translate(304.7679678372276,266.9633963547826)"><g class="dcg-svg-label"><g transform="translate(-3.6195303372276157,-8.963396354782617)"><g><text fill="none" stroke="#FFF" font-family="arial, sans-serif" font-size="15.4px" font-style="normal" font-weight="400" text-decoration="normal" x="0" y="13.4888" text-anchor="start" stroke-linecap="round" stroke-linejoin="round" stroke-miterlimit="2" stroke-width="3" stroke-dasharray="">x</text></g></g><g transform="translate(-3.6195303372276157,-8.963396354782617)"><g><text fill="rgb(45, 112, 179)" stroke="none" font-family="arial, sans-serif" font-size="15.4px" font-style="normal" font-weight="400" text-decoration="normal" x="0" y="13.4888" text-anchor="start">x</text></g></g></g></g><g transform="rotate(0,0,0) translate(291.61440287599316,126.61438171824855)"><g class="dcg-svg-label"><g transform="translate(-3.4659653759931643,-8.614381718248552)"><g><text fill="none" stroke="#FFF" font-family="arial, sans-serif" font-size="15.4px" font-style="normal" font-weight="400" text-decoration="normal" x="0" y="13.4888" text-anchor="start" stroke-linecap="round" stroke-linejoin="round" stroke-miterlimit="2" stroke-width="3" stroke-dasharray="">y</text></g></g><g transform="translate(-3.4659653759931643,-8.614381718248552)"><g><text fill="rgb(56, 140, 70)" stroke="none" font-family="arial, sans-serif" font-size="15.4px" font-style="normal" font-weight="400" text-decoration="normal" x="0" y="13.4888" text-anchor="start">y</text></g></g></g></g></g></g></svg>