<?xml version="1.0" encoding="UTF-8" standalone="no"?>
<!DOCTYPE svg PUBLIC "-//W3C//DTD SVG 1.1//EN" "http://www.w3.org/Graphics/SVG/1.1/DTD/svg11.dtd">
<svg xmlns="http://www.w3.org/2000/svg" xmlns:xlink="http://www.w3.org/1999/xlink" version="1.1" width="150.957pt" height="163.494pt" viewBox="0 0 150.957 163.494">
<path transform="matrix(1,0,0,-1,78.742,63.413003)" stroke-width="1" stroke-linecap="butt" stroke-miterlimit="10" stroke-linejoin="miter" fill="none" stroke="#000000" d="M -34.55196 -42.34146 L -67.84047 -83.13463 "/>
<path transform="matrix(-.63411,.77705,.77705,.63411,10.90155,146.54764)" d="M 1.99252 0 L -1.19551 1.59401 L 0 0 L -1.19551 -1.59401 "/>
<path transform="matrix(1,0,0,-1,78.742,63.413003)" stroke-width="1" stroke-linecap="butt" stroke-miterlimit="10" stroke-linejoin="miter" fill="none" stroke="#000000" d="M -34.55196 -42.34146 L 58.37128 -57.4218 "/>
<path transform="matrix(.98744,.16023,.16023,-.98744,137.11328,120.8348)" d="M 1.99252 0 L -1.19551 1.59401 L 0 0 L -1.19551 -1.59401 "/>
<path transform="matrix(1,0,0,-1,78.742,63.413003)" stroke-width="1" stroke-linecap="butt" stroke-miterlimit="10" stroke-linejoin="miter" fill="none" stroke="#000000" d="M -34.55196 -42.34146 L -34.55196 52.3553 "/>
<path transform="matrix(0,-1,-1,-0,44.190038,11.057701)" d="M 1.99252 0 L -1.19551 1.59401 L 0 0 L -1.19551 -1.59401 "/>
<clipPath id="cp0">
<path transform="matrix(1,0,0,-1,78.742,63.413003)" d="M -69.10393 -84.68292 L -69.10393 12.00636 L -34.55196 54.34782 L 60.33878 38.94823 L 60.33878 -57.74106 L 25.7868 -100.08252 Z "/>
</clipPath>
<g clip-path="url(#cp0)">
<path transform="matrix(1,0,0,-1,78.742,63.413003)" stroke-width="1" stroke-linecap="butt" stroke-miterlimit="10" stroke-linejoin="miter" fill="none" stroke="#8fc7ff" d="M 0 43.94968 L -5.75865 45.2432 L 3.73041 43.59335 L 9.48907 42.29984 Z "/>
<path transform="matrix(1,0,0,-1,78.742,63.413003)" stroke-width="1" stroke-linecap="butt" stroke-miterlimit="10" stroke-linejoin="miter" fill="none" stroke="#40a0ff" d="M -5.75865 45.2432 L -11.51732 45.65773 L -2.02824 44.00789 L 3.73041 43.59335 Z "/>
<path transform="matrix(1,0,0,-1,78.742,63.413003)" stroke-width="1" stroke-linecap="butt" stroke-miterlimit="10" stroke-linejoin="miter" fill="none" stroke="#067dff" d="M -11.51732 45.65773 L -17.27597 45.19327 L -7.7869 43.54343 L -2.02824 44.00789 Z "/>
<path transform="matrix(1,0,0,-1,78.742,63.413003)" stroke-width="1" stroke-linecap="butt" stroke-miterlimit="10" stroke-linejoin="miter" fill="none" stroke="#435eff" d="M -17.27597 45.19327 L -23.03464 43.84982 L -13.54556 42.19998 L -7.7869 43.54343 Z "/>
<path transform="matrix(1,0,0,-1,78.742,63.413003)" stroke-width="1" stroke-linecap="butt" stroke-miterlimit="10" stroke-linejoin="miter" fill="none" stroke="#7844ff" d="M -23.03464 43.84982 L -28.7933 41.62737 L -19.30423 39.97754 L -13.54556 42.19998 Z "/>
<path transform="matrix(1,0,0,-1,78.742,63.413003)" stroke-width="1" stroke-linecap="butt" stroke-miterlimit="10" stroke-linejoin="miter" fill="none" stroke="#a42eff" d="M -28.7933 41.62737 L -34.55196 38.52594 L -25.06288 36.8761 L -19.30423 39.97754 Z "/>
<path transform="matrix(1,0,0,-1,78.742,63.413003)" stroke-width="1" stroke-linecap="butt" stroke-miterlimit="10" stroke-linejoin="miter" fill="none" stroke="#c71cff" d="M -34.55196 38.52594 L -40.31062 34.5455 L -30.82155 32.89566 L -25.06288 36.8761 Z "/>
<path transform="matrix(1,0,0,-1,78.742,63.413003)" stroke-width="1" stroke-linecap="butt" stroke-miterlimit="10" stroke-linejoin="miter" fill="none" stroke="#e20fff" d="M -40.31062 34.5455 L -46.06929 29.68608 L -36.58022 28.03624 L -30.82155 32.89566 Z "/>
<path transform="matrix(1,0,0,-1,78.742,63.413003)" stroke-width="1" stroke-linecap="butt" stroke-miterlimit="10" stroke-linejoin="miter" fill="none" stroke="#f306ff" d="M -46.06929 29.68608 L -51.82794 23.94765 L -42.33887 22.2978 L -36.58022 28.03624 Z "/>
<path transform="matrix(1,0,0,-1,78.742,63.413003)" stroke-width="1" stroke-linecap="butt" stroke-miterlimit="10" stroke-linejoin="miter" fill="none" stroke="#fc02ff" d="M -51.82794 23.94765 L -57.58661 17.33025 L -48.09753 15.6804 L -42.33887 22.2978 Z "/>
<path transform="matrix(1,0,0,-1,78.742,63.413003)" stroke-width="1" stroke-linecap="butt" stroke-miterlimit="10" stroke-linejoin="miter" fill="none" stroke="#fc02ff" d="M -57.58661 17.33025 L -63.34526 9.83383 L -53.85619 8.18399 L -48.09753 15.6804 Z "/>
<path transform="matrix(1,0,0,-1,78.742,63.413003)" stroke-width="1" stroke-linecap="butt" stroke-miterlimit="10" stroke-linejoin="miter" fill="none" stroke="#f306ff" d="M -63.34526 9.83383 L -69.10393 1.45844 L -59.61485 -.19139 L -53.85619 8.18399 Z "/>
<path transform="matrix(1,0,0,-1,78.742,63.413003)" stroke-width="1" stroke-linecap="butt" stroke-miterlimit="10" stroke-linejoin="miter" fill="none" stroke="#92c9ff" d="M 9.48907 42.29984 L 3.73041 43.59335 L 13.21948 41.72379 L 18.97815 40.43025 Z "/>
<path transform="matrix(1,0,0,-1,78.742,63.413003)" stroke-width="1" stroke-linecap="butt" stroke-miterlimit="10" stroke-linejoin="miter" fill="none" stroke="#e20fff" d="M -69.10393 1.45844 L -74.8626 -7.79594 L -65.37352 -9.44579 L -59.61485 -.19139 Z "/>
<path transform="matrix(1,0,0,-1,78.742,63.413003)" stroke-width="1" stroke-linecap="butt" stroke-miterlimit="10" stroke-linejoin="miter" fill="none" stroke="#c71cff" d="M -74.8626 -7.79594 L -80.62125 -17.92932 L -71.13217 -19.57916 L -65.37352 -9.44579 Z "/>
<path transform="matrix(1,0,0,-1,78.742,63.413003)" stroke-width="1" stroke-linecap="butt" stroke-miterlimit="10" stroke-linejoin="miter" fill="none" stroke="#43a1ff" d="M 3.73041 43.59335 L -2.02824 44.00789 L 7.46082 42.1383 L 13.21948 41.72379 Z "/>
<path transform="matrix(1,0,0,-1,78.742,63.413003)" stroke-width="1" stroke-linecap="butt" stroke-miterlimit="10" stroke-linejoin="miter" fill="none" stroke="#047eff" d="M -2.02824 44.00789 L -7.7869 43.54343 L 1.70216 41.67386 L 7.46082 42.1383 Z "/>
<path transform="matrix(1,0,0,-1,78.742,63.413003)" stroke-width="1" stroke-linecap="butt" stroke-miterlimit="10" stroke-linejoin="miter" fill="none" stroke="#415fff" d="M -7.7869 43.54343 L -13.54556 42.19998 L -4.05649 40.3304 L 1.70216 41.67386 Z "/>
<path transform="matrix(1,0,0,-1,78.742,63.413003)" stroke-width="1" stroke-linecap="butt" stroke-miterlimit="10" stroke-linejoin="miter" fill="none" stroke="#7645ff" d="M -13.54556 42.19998 L -19.30423 39.97754 L -9.81516 38.10796 L -4.05649 40.3304 Z "/>
<path transform="matrix(1,0,0,-1,78.742,63.413003)" stroke-width="1" stroke-linecap="butt" stroke-miterlimit="10" stroke-linejoin="miter" fill="none" stroke="#a22fff" d="M -19.30423 39.97754 L -25.06288 36.8761 L -15.5738 35.00652 L -9.81516 38.10796 Z "/>
<path transform="matrix(1,0,0,-1,78.742,63.413003)" stroke-width="1" stroke-linecap="butt" stroke-miterlimit="10" stroke-linejoin="miter" fill="none" stroke="#c51dff" d="M -25.06288 36.8761 L -30.82155 32.89566 L -21.33247 31.0261 L -15.5738 35.00652 Z "/>
<path transform="matrix(1,0,0,-1,78.742,63.413003)" stroke-width="1" stroke-linecap="butt" stroke-miterlimit="10" stroke-linejoin="miter" fill="none" stroke="#df10ff" d="M -30.82155 32.89566 L -36.58022 28.03624 L -27.09114 26.16666 L -21.33247 31.0261 Z "/>
<path transform="matrix(1,0,0,-1,78.742,63.413003)" stroke-width="1" stroke-linecap="butt" stroke-miterlimit="10" stroke-linejoin="miter" fill="none" stroke="#f107ff" d="M -36.58022 28.03624 L -42.33887 22.2978 L -32.8498 20.42824 L -27.09114 26.16666 Z "/>
<path transform="matrix(1,0,0,-1,78.742,63.413003)" stroke-width="1" stroke-linecap="butt" stroke-miterlimit="10" stroke-linejoin="miter" fill="none" stroke="#fa03ff" d="M -42.33887 22.2978 L -48.09753 15.6804 L -38.60846 13.81082 L -32.8498 20.42824 Z "/>
<path transform="matrix(1,0,0,-1,78.742,63.413003)" stroke-width="1" stroke-linecap="butt" stroke-miterlimit="10" stroke-linejoin="miter" fill="none" stroke="#fa03ff" d="M -48.09753 15.6804 L -53.85619 8.18399 L -44.36711 6.31442 L -38.60846 13.81082 Z "/>
<path transform="matrix(1,0,0,-1,78.742,63.413003)" stroke-width="1" stroke-linecap="butt" stroke-miterlimit="10" stroke-linejoin="miter" fill="none" stroke="#f107ff" d="M -53.85619 8.18399 L -59.61485 -.19139 L -50.12578 -2.06097 L -44.36711 6.31442 Z "/>
<path transform="matrix(1,0,0,-1,78.742,63.413003)" stroke-width="1" stroke-linecap="butt" stroke-miterlimit="10" stroke-linejoin="miter" fill="none" stroke="#96cbff" d="M 18.97815 40.43025 L 13.21948 41.72379 L 22.70856 39.63445 L 28.46722 38.34091 Z "/>
<path transform="matrix(1,0,0,-1,78.742,63.413003)" stroke-width="1" stroke-linecap="butt" stroke-miterlimit="10" stroke-linejoin="miter" fill="none" stroke="#df10ff" d="M -59.61485 -.19139 L -65.37352 -9.44579 L -55.88445 -11.31535 L -50.12578 -2.06097 Z "/>
<path transform="matrix(1,0,0,-1,78.742,63.413003)" stroke-width="1" stroke-linecap="butt" stroke-miterlimit="10" stroke-linejoin="miter" fill="none" stroke="#c51dff" d="M -65.37352 -9.44579 L -71.13217 -19.57916 L -61.6431 -21.44875 L -55.88445 -11.31535 Z "/>
<path transform="matrix(1,0,0,-1,78.742,63.413003)" stroke-width="1" stroke-linecap="butt" stroke-miterlimit="10" stroke-linejoin="miter" fill="none" stroke="#47a3ff" d="M 13.21948 41.72379 L 7.46082 42.1383 L 16.94989 40.04898 L 22.70856 39.63445 Z "/>
<path transform="matrix(1,0,0,-1,78.742,63.413003)" stroke-width="1" stroke-linecap="butt" stroke-miterlimit="10" stroke-linejoin="miter" fill="none" stroke="#0180ff" d="M 7.46082 42.1383 L 1.70216 41.67386 L 11.19124 39.58452 L 16.94989 40.04898 Z "/>
<path transform="matrix(1,0,0,-1,78.742,63.413003)" stroke-width="1" stroke-linecap="butt" stroke-miterlimit="10" stroke-linejoin="miter" fill="none" stroke="#3d61ff" d="M 1.70216 41.67386 L -4.05649 40.3304 L 5.43257 38.24107 L 11.19124 39.58452 Z "/>
<path transform="matrix(1,0,0,-1,78.742,63.413003)" stroke-width="1" stroke-linecap="butt" stroke-miterlimit="10" stroke-linejoin="miter" fill="none" stroke="#7247ff" d="M -4.05649 40.3304 L -9.81516 38.10796 L -.32608 36.01862 L 5.43257 38.24107 Z "/>
<path transform="matrix(1,0,0,-1,78.742,63.413003)" stroke-width="1" stroke-linecap="butt" stroke-miterlimit="10" stroke-linejoin="miter" fill="none" stroke="#9d31ff" d="M -9.81516 38.10796 L -15.5738 35.00652 L -6.08473 32.91719 L -.32608 36.01862 Z "/>
<path transform="matrix(1,0,0,-1,78.742,63.413003)" stroke-width="1" stroke-linecap="butt" stroke-miterlimit="10" stroke-linejoin="miter" fill="none" stroke="#c11fff" d="M -15.5738 35.00652 L -21.33247 31.0261 L -11.8434 28.93675 L -6.08473 32.91719 Z "/>
<path transform="matrix(1,0,0,-1,78.742,63.413003)" stroke-width="1" stroke-linecap="butt" stroke-miterlimit="10" stroke-linejoin="miter" fill="none" stroke="#db12ff" d="M -21.33247 31.0261 L -27.09114 26.16666 L -17.60207 24.07733 L -11.8434 28.93675 Z "/>
<path transform="matrix(1,0,0,-1,78.742,63.413003)" stroke-width="1" stroke-linecap="butt" stroke-miterlimit="10" stroke-linejoin="miter" fill="none" stroke="#ed09ff" d="M -27.09114 26.16666 L -32.8498 20.42824 L -23.36072 18.3389 L -17.60207 24.07733 Z "/>
<path transform="matrix(1,0,0,-1,78.742,63.413003)" stroke-width="1" stroke-linecap="butt" stroke-miterlimit="10" stroke-linejoin="miter" fill="none" stroke="#f505ff" d="M -32.8498 20.42824 L -38.60846 13.81082 L -29.11938 11.7215 L -23.36072 18.3389 Z "/>
<path transform="matrix(1,0,0,-1,78.742,63.413003)" stroke-width="1" stroke-linecap="butt" stroke-miterlimit="10" stroke-linejoin="miter" fill="none" stroke="#f505ff" d="M -38.60846 13.81082 L -44.36711 6.31442 L -34.87804 4.22508 L -29.11938 11.7215 Z "/>
<path transform="matrix(1,0,0,-1,78.742,63.413003)" stroke-width="1" stroke-linecap="butt" stroke-miterlimit="10" stroke-linejoin="miter" fill="none" stroke="#ed09ff" d="M -44.36711 6.31442 L -50.12578 -2.06097 L -40.6367 -4.1503 L -34.87804 4.22508 Z "/>
<path transform="matrix(1,0,0,-1,78.742,63.413003)" stroke-width="1" stroke-linecap="butt" stroke-miterlimit="10" stroke-linejoin="miter" fill="none" stroke="#9dceff" d="M 28.46722 38.34091 L 22.70856 39.63445 L 32.19763 37.32536 L 37.9563 36.03185 Z "/>
<path transform="matrix(1,0,0,-1,78.742,63.413003)" stroke-width="1" stroke-linecap="butt" stroke-miterlimit="10" stroke-linejoin="miter" fill="none" stroke="#db12ff" d="M -50.12578 -2.06097 L -55.88445 -11.31535 L -46.39537 -13.40471 L -40.6367 -4.1503 Z "/>
<path transform="matrix(1,0,0,-1,78.742,63.413003)" stroke-width="1" stroke-linecap="butt" stroke-miterlimit="10" stroke-linejoin="miter" fill="none" stroke="#c11fff" d="M -55.88445 -11.31535 L -61.6431 -21.44875 L -52.15402 -23.53809 L -46.39537 -13.40471 Z "/>
<path transform="matrix(1,0,0,-1,78.742,63.413003)" stroke-width="1" stroke-linecap="butt" stroke-miterlimit="10" stroke-linejoin="miter" fill="none" stroke="#4ea7ff" d="M 22.70856 39.63445 L 16.94989 40.04898 L 26.43896 37.73991 L 32.19763 37.32536 Z "/>
<path transform="matrix(1,0,0,-1,78.742,63.413003)" stroke-width="1" stroke-linecap="butt" stroke-miterlimit="10" stroke-linejoin="miter" fill="none" stroke="#0784ff" d="M 16.94989 40.04898 L 11.19124 39.58452 L 20.68031 37.27544 L 26.43896 37.73991 Z "/>
<path transform="matrix(1,0,0,-1,78.742,63.413003)" stroke-width="1" stroke-linecap="butt" stroke-miterlimit="10" stroke-linejoin="miter" fill="none" stroke="#3665ff" d="M 11.19124 39.58452 L 5.43257 38.24107 L 14.92165 35.93199 L 20.68031 37.27544 Z "/>
<path transform="matrix(1,0,0,-1,78.742,63.413003)" stroke-width="1" stroke-linecap="butt" stroke-miterlimit="10" stroke-linejoin="miter" fill="none" stroke="#6b4aff" d="M 5.43257 38.24107 L -.32608 36.01862 L 9.16298 33.70955 L 14.92165 35.93199 Z "/>
<path transform="matrix(1,0,0,-1,78.742,63.413003)" stroke-width="1" stroke-linecap="butt" stroke-miterlimit="10" stroke-linejoin="miter" fill="none" stroke="#9734ff" d="M -.32608 36.01862 L -6.08473 32.91719 L 3.40433 30.60811 L 9.16298 33.70955 Z "/>
<path transform="matrix(1,0,0,-1,78.742,63.413003)" stroke-width="1" stroke-linecap="butt" stroke-miterlimit="10" stroke-linejoin="miter" fill="none" stroke="#ba23ff" d="M -6.08473 32.91719 L -11.8434 28.93675 L -2.35432 26.62767 L 3.40433 30.60811 Z "/>
<path transform="matrix(1,0,0,-1,78.742,63.413003)" stroke-width="1" stroke-linecap="butt" stroke-miterlimit="10" stroke-linejoin="miter" fill="none" stroke="#d415ff" d="M -11.8434 28.93675 L -17.60207 24.07733 L -8.11299 21.76825 L -2.35432 26.62767 Z "/>
<path transform="matrix(1,0,0,-1,78.742,63.413003)" stroke-width="1" stroke-linecap="butt" stroke-miterlimit="10" stroke-linejoin="miter" fill="none" stroke="#e60dff" d="M -17.60207 24.07733 L -23.36072 18.3389 L -13.87164 16.02983 L -8.11299 21.76825 Z "/>
<path transform="matrix(1,0,0,-1,78.742,63.413003)" stroke-width="1" stroke-linecap="butt" stroke-miterlimit="10" stroke-linejoin="miter" fill="none" stroke="#ef08ff" d="M -23.36072 18.3389 L -29.11938 11.7215 L -19.63031 9.41241 L -13.87164 16.02983 Z "/>
<path transform="matrix(1,0,0,-1,78.742,63.413003)" stroke-width="1" stroke-linecap="butt" stroke-miterlimit="10" stroke-linejoin="miter" fill="none" stroke="#ef08ff" d="M -29.11938 11.7215 L -34.87804 4.22508 L -25.38896 1.916 L -19.63031 9.41241 Z "/>
<path transform="matrix(1,0,0,-1,78.742,63.413003)" stroke-width="1" stroke-linecap="butt" stroke-miterlimit="10" stroke-linejoin="miter" fill="none" stroke="#e60dff" d="M -34.87804 4.22508 L -40.6367 -4.1503 L -31.14763 -6.45938 L -25.38896 1.916 Z "/>
<path transform="matrix(1,0,0,-1,78.742,63.413003)" stroke-width="1" stroke-linecap="butt" stroke-miterlimit="10" stroke-linejoin="miter" fill="none" stroke="#a5d2ff" d="M 37.9563 36.03185 L 32.19763 37.32536 L 41.6867 34.79652 L 47.44537 33.503 Z "/>
<path transform="matrix(1,0,0,-1,78.742,63.413003)" stroke-width="1" stroke-linecap="butt" stroke-miterlimit="10" stroke-linejoin="miter" fill="none" stroke="#d415ff" d="M -40.6367 -4.1503 L -46.39537 -13.40471 L -36.9063 -15.71378 L -31.14763 -6.45938 Z "/>
<path transform="matrix(1,0,0,-1,78.742,63.413003)" stroke-width="1" stroke-linecap="butt" stroke-miterlimit="10" stroke-linejoin="miter" fill="none" stroke="#ba23ff" d="M -46.39537 -13.40471 L -52.15402 -23.53809 L -42.66495 -25.84715 L -36.9063 -15.71378 Z "/>
<path transform="matrix(1,0,0,-1,78.742,63.413003)" stroke-width="1" stroke-linecap="butt" stroke-miterlimit="10" stroke-linejoin="miter" fill="none" stroke="#56abff" d="M 32.19763 37.32536 L 26.43896 37.73991 L 35.92804 35.21107 L 41.6867 34.79652 Z "/>
<path transform="matrix(1,0,0,-1,78.742,63.413003)" stroke-width="1" stroke-linecap="butt" stroke-miterlimit="10" stroke-linejoin="miter" fill="none" stroke="#1088ff" d="M 26.43896 37.73991 L 20.68031 37.27544 L 30.16939 34.74661 L 35.92804 35.21107 Z "/>
<path transform="matrix(1,0,0,-1,78.742,63.413003)" stroke-width="1" stroke-linecap="butt" stroke-miterlimit="10" stroke-linejoin="miter" fill="none" stroke="#2d69ff" d="M 20.68031 37.27544 L 14.92165 35.93199 L 24.41072 33.40317 L 30.16939 34.74661 Z "/>
<path transform="matrix(1,0,0,-1,78.742,63.413003)" stroke-width="1" stroke-linecap="butt" stroke-miterlimit="10" stroke-linejoin="miter" fill="none" stroke="#624fff" d="M 14.92165 35.93199 L 9.16298 33.70955 L 18.65205 31.18071 L 24.41072 33.40317 Z "/>
<path transform="matrix(1,0,0,-1,78.742,63.413003)" stroke-width="1" stroke-linecap="butt" stroke-miterlimit="10" stroke-linejoin="miter" fill="none" stroke="#8e39ff" d="M 9.16298 33.70955 L 3.40433 30.60811 L 12.8934 28.07928 L 18.65205 31.18071 Z "/>
<path transform="matrix(1,0,0,-1,78.742,63.413003)" stroke-width="1" stroke-linecap="butt" stroke-miterlimit="10" stroke-linejoin="miter" fill="none" stroke="#b127ff" d="M 3.40433 30.60811 L -2.35432 26.62767 L 7.13474 24.09883 L 12.8934 28.07928 Z "/>
<path transform="matrix(1,0,0,-1,78.742,63.413003)" stroke-width="1" stroke-linecap="butt" stroke-miterlimit="10" stroke-linejoin="miter" fill="none" stroke="#cc1aff" d="M -2.35432 26.62767 L -8.11299 21.76825 L 1.37607 19.23943 L 7.13474 24.09883 Z "/>
<path transform="matrix(1,0,0,-1,78.742,63.413003)" stroke-width="1" stroke-linecap="butt" stroke-miterlimit="10" stroke-linejoin="miter" fill="none" stroke="#dd11ff" d="M -8.11299 21.76825 L -13.87164 16.02983 L -4.38257 13.50099 L 1.37607 19.23943 Z "/>
<path transform="matrix(1,0,0,-1,78.742,63.413003)" stroke-width="1" stroke-linecap="butt" stroke-miterlimit="10" stroke-linejoin="miter" fill="none" stroke="#e60dff" d="M -13.87164 16.02983 L -19.63031 9.41241 L -10.14124 6.88359 L -4.38257 13.50099 Z "/>
<path transform="matrix(1,0,0,-1,78.742,63.413003)" stroke-width="1" stroke-linecap="butt" stroke-miterlimit="10" stroke-linejoin="miter" fill="none" stroke="#e60dff" d="M -19.63031 9.41241 L -25.38896 1.916 L -15.89989 -.61281 L -10.14124 6.88359 Z "/>
<path transform="matrix(1,0,0,-1,78.742,63.413003)" stroke-width="1" stroke-linecap="butt" stroke-miterlimit="10" stroke-linejoin="miter" fill="none" stroke="#dd11ff" d="M -25.38896 1.916 L -31.14763 -6.45938 L -21.65855 -8.9882 L -15.89989 -.61281 Z "/>
<path transform="matrix(1,0,0,-1,78.742,63.413003)" stroke-width="1" stroke-linecap="butt" stroke-miterlimit="10" stroke-linejoin="miter" fill="none" stroke="#b0d8ff" d="M 47.44537 33.503 L 41.6867 34.79652 L 51.17578 32.04797 L 56.93445 30.75443 Z "/>
<path transform="matrix(1,0,0,-1,78.742,63.413003)" stroke-width="1" stroke-linecap="butt" stroke-miterlimit="10" stroke-linejoin="miter" fill="none" stroke="#cc1aff" d="M -31.14763 -6.45938 L -36.9063 -15.71378 L -27.41722 -18.24261 L -21.65855 -8.9882 Z "/>
<path transform="matrix(1,0,0,-1,78.742,63.413003)" stroke-width="1" stroke-linecap="butt" stroke-miterlimit="10" stroke-linejoin="miter" fill="none" stroke="#b127ff" d="M -36.9063 -15.71378 L -42.66495 -25.84715 L -33.17587 -28.37599 L -27.41722 -18.24261 Z "/>
<path transform="matrix(1,0,0,-1,78.742,63.413003)" stroke-width="1" stroke-linecap="butt" stroke-miterlimit="10" stroke-linejoin="miter" fill="none" stroke="#61b0ff" d="M 41.6867 34.79652 L 35.92804 35.21107 L 45.41711 32.4625 L 51.17578 32.04797 Z "/>
<path transform="matrix(1,0,0,-1,78.742,63.413003)" stroke-width="1" stroke-linecap="butt" stroke-miterlimit="10" stroke-linejoin="miter" fill="none" stroke="#1b8dff" d="M 35.92804 35.21107 L 30.16939 34.74661 L 39.65846 31.99805 L 45.41711 32.4625 Z "/>
<path transform="matrix(1,0,0,-1,78.742,63.413003)" stroke-width="1" stroke-linecap="butt" stroke-miterlimit="10" stroke-linejoin="miter" fill="none" stroke="#226fff" d="M 30.16939 34.74661 L 24.41072 33.40317 L 33.8998 30.65459 L 39.65846 31.99805 Z "/>
<path transform="matrix(1,0,0,-1,78.742,63.413003)" stroke-width="1" stroke-linecap="butt" stroke-miterlimit="10" stroke-linejoin="miter" fill="none" stroke="#5754ff" d="M 24.41072 33.40317 L 18.65205 31.18071 L 28.14113 28.43214 L 33.8998 30.65459 Z "/>
<path transform="matrix(1,0,0,-1,78.742,63.413003)" stroke-width="1" stroke-linecap="butt" stroke-miterlimit="10" stroke-linejoin="miter" fill="none" stroke="#833eff" d="M 18.65205 31.18071 L 12.8934 28.07928 L 22.38248 25.3307 L 28.14113 28.43214 Z "/>
<path transform="matrix(1,0,0,-1,78.742,63.413003)" stroke-width="1" stroke-linecap="butt" stroke-miterlimit="10" stroke-linejoin="miter" fill="none" stroke="#a62dff" d="M 12.8934 28.07928 L 7.13474 24.09883 L 16.62381 21.35028 L 22.38248 25.3307 Z "/>
<path transform="matrix(1,0,0,-1,78.742,63.413003)" stroke-width="1" stroke-linecap="butt" stroke-miterlimit="10" stroke-linejoin="miter" fill="none" stroke="#c11fff" d="M 7.13474 24.09883 L 1.37607 19.23943 L 10.86514 16.49084 L 16.62381 21.35028 Z "/>
<path transform="matrix(1,0,0,-1,78.742,63.413003)" stroke-width="1" stroke-linecap="butt" stroke-miterlimit="10" stroke-linejoin="miter" fill="none" stroke="#d216ff" d="M 1.37607 19.23943 L -4.38257 13.50099 L 5.10649 10.75243 L 10.86514 16.49084 Z "/>
<path transform="matrix(1,0,0,-1,78.742,63.413003)" stroke-width="1" stroke-linecap="butt" stroke-miterlimit="10" stroke-linejoin="miter" fill="none" stroke="#db12ff" d="M -4.38257 13.50099 L -10.14124 6.88359 L -.65216 4.13501 L 5.10649 10.75243 Z "/>
<path transform="matrix(1,0,0,-1,78.742,63.413003)" stroke-width="1" stroke-linecap="butt" stroke-miterlimit="10" stroke-linejoin="miter" fill="none" stroke="#db12ff" d="M -10.14124 6.88359 L -15.89989 -.61281 L -6.41081 -3.36137 L -.65216 4.13501 Z "/>
<path transform="matrix(1,0,0,-1,78.742,63.413003)" stroke-width="1" stroke-linecap="butt" stroke-miterlimit="10" stroke-linejoin="miter" fill="none" stroke="#d216ff" d="M -15.89989 -.61281 L -21.65855 -8.9882 L -12.16948 -11.73679 L -6.41081 -3.36137 Z "/>
<path transform="matrix(1,0,0,-1,78.742,63.413003)" stroke-width="1" stroke-linecap="butt" stroke-miterlimit="10" stroke-linejoin="miter" fill="none" stroke="#bedeff" d="M 56.93445 30.75443 L 51.17578 32.04797 L 60.66486 29.07964 L 66.42352 27.7861 Z "/>
<path transform="matrix(1,0,0,-1,78.742,63.413003)" stroke-width="1" stroke-linecap="butt" stroke-miterlimit="10" stroke-linejoin="miter" fill="none" stroke="#c11fff" d="M -21.65855 -8.9882 L -27.41722 -18.24261 L -17.92815 -20.99118 L -12.16948 -11.73679 Z "/>
<path transform="matrix(1,0,0,-1,78.742,63.413003)" stroke-width="1" stroke-linecap="butt" stroke-miterlimit="10" stroke-linejoin="miter" fill="none" stroke="#a62dff" d="M -27.41722 -18.24261 L -33.17587 -28.37599 L -23.6868 -31.12457 L -17.92815 -20.99118 Z "/>
<path transform="matrix(1,0,0,-1,78.742,63.413003)" stroke-width="1" stroke-linecap="butt" stroke-miterlimit="10" stroke-linejoin="miter" fill="none" stroke="#6fb7ff" d="M 51.17578 32.04797 L 45.41711 32.4625 L 54.90619 29.49417 L 60.66486 29.07964 Z "/>
<path transform="matrix(1,0,0,-1,78.742,63.413003)" stroke-width="1" stroke-linecap="butt" stroke-miterlimit="10" stroke-linejoin="miter" fill="none" stroke="#2894ff" d="M 45.41711 32.4625 L 39.65846 31.99805 L 49.14754 29.02971 L 54.90619 29.49417 Z "/>
<path transform="matrix(1,0,0,-1,78.742,63.413003)" stroke-width="1" stroke-linecap="butt" stroke-miterlimit="10" stroke-linejoin="miter" fill="none" stroke="#1575ff" d="M 39.65846 31.99805 L 33.8998 30.65459 L 43.38887 27.68626 L 49.14754 29.02971 Z "/>
<path transform="matrix(1,0,0,-1,78.742,63.413003)" stroke-width="1" stroke-linecap="butt" stroke-miterlimit="10" stroke-linejoin="miter" fill="none" stroke="#4a5bff" d="M 33.8998 30.65459 L 28.14113 28.43214 L 37.6302 25.4638 L 43.38887 27.68626 Z "/>
<path transform="matrix(1,0,0,-1,78.742,63.413003)" stroke-width="1" stroke-linecap="butt" stroke-miterlimit="10" stroke-linejoin="miter" fill="none" stroke="#7645ff" d="M 28.14113 28.43214 L 22.38248 25.3307 L 31.87155 22.36238 L 37.6302 25.4638 Z "/>
<path transform="matrix(1,0,0,-1,78.742,63.413003)" stroke-width="1" stroke-linecap="butt" stroke-miterlimit="10" stroke-linejoin="miter" fill="none" stroke="#9933ff" d="M 22.38248 25.3307 L 16.62381 21.35028 L 26.11288 18.38194 L 31.87155 22.36238 Z "/>
<path transform="matrix(1,0,0,-1,78.742,63.413003)" stroke-width="1" stroke-linecap="butt" stroke-miterlimit="10" stroke-linejoin="miter" fill="none" stroke="#b326ff" d="M 16.62381 21.35028 L 10.86514 16.49084 L 20.35423 13.52252 L 26.11288 18.38194 Z "/>
<path transform="matrix(1,0,0,-1,78.742,63.413003)" stroke-width="1" stroke-linecap="butt" stroke-miterlimit="10" stroke-linejoin="miter" fill="none" stroke="#c51dff" d="M 10.86514 16.49084 L 5.10649 10.75243 L 14.59557 7.78409 L 20.35423 13.52252 Z "/>
<path transform="matrix(1,0,0,-1,78.742,63.413003)" stroke-width="1" stroke-linecap="butt" stroke-miterlimit="10" stroke-linejoin="miter" fill="none" stroke="#ce19ff" d="M 5.10649 10.75243 L -.65216 4.13501 L 8.8369 1.16669 L 14.59557 7.78409 Z "/>
<path transform="matrix(1,0,0,-1,78.742,63.413003)" stroke-width="1" stroke-linecap="butt" stroke-miterlimit="10" stroke-linejoin="miter" fill="none" stroke="#ce19ff" d="M -.65216 4.13501 L -6.41081 -3.36137 L 3.07825 -6.32971 L 8.8369 1.16669 Z "/>
<path transform="matrix(1,0,0,-1,78.742,63.413003)" stroke-width="1" stroke-linecap="butt" stroke-miterlimit="10" stroke-linejoin="miter" fill="none" stroke="#c51dff" d="M -6.41081 -3.36137 L -12.16948 -11.73679 L -2.6804 -14.70511 L 3.07825 -6.32971 Z "/>
<path transform="matrix(1,0,0,-1,78.742,63.413003)" stroke-width="1" stroke-linecap="butt" stroke-miterlimit="10" stroke-linejoin="miter" fill="none" stroke="#cde6ff" d="M 66.42352 27.7861 L 60.66486 29.07964 L 70.15393 25.89156 L 75.9126 24.59804 Z "/>
<path transform="matrix(1,0,0,-1,78.742,63.413003)" stroke-width="1" stroke-linecap="butt" stroke-miterlimit="10" stroke-linejoin="miter" fill="none" stroke="#b326ff" d="M -12.16948 -11.73679 L -17.92815 -20.99118 L -8.43907 -23.95952 L -2.6804 -14.70511 Z "/>
<path transform="matrix(1,0,0,-1,78.742,63.413003)" stroke-width="1" stroke-linecap="butt" stroke-miterlimit="10" stroke-linejoin="miter" fill="none" stroke="#9933ff" d="M -17.92815 -20.99118 L -23.6868 -31.12457 L -14.19772 -34.0929 L -8.43907 -23.95952 Z "/>
<path transform="matrix(1,0,0,-1,78.742,63.413003)" stroke-width="1" stroke-linecap="butt" stroke-miterlimit="10" stroke-linejoin="miter" fill="none" stroke="#7ebfff" d="M 60.66486 29.07964 L 54.90619 29.49417 L 64.39526 26.3061 L 70.15393 25.89156 Z "/>
<path transform="matrix(1,0,0,-1,78.742,63.413003)" stroke-width="1" stroke-linecap="butt" stroke-miterlimit="10" stroke-linejoin="miter" fill="none" stroke="#389cff" d="M 54.90619 29.49417 L 49.14754 29.02971 L 58.63661 25.84164 L 64.39526 26.3061 Z "/>
<path transform="matrix(1,0,0,-1,78.742,63.413003)" stroke-width="1" stroke-linecap="butt" stroke-miterlimit="10" stroke-linejoin="miter" fill="none" stroke="#067dff" d="M 49.14754 29.02971 L 43.38887 27.68626 L 52.87794 24.4982 L 58.63661 25.84164 Z "/>
<path transform="matrix(1,0,0,-1,78.742,63.413003)" stroke-width="1" stroke-linecap="butt" stroke-miterlimit="10" stroke-linejoin="miter" fill="none" stroke="#3b63ff" d="M 43.38887 27.68626 L 37.6302 25.4638 L 47.11928 22.27574 L 52.87794 24.4982 Z "/>
<path transform="matrix(1,0,0,-1,78.742,63.413003)" stroke-width="1" stroke-linecap="butt" stroke-miterlimit="10" stroke-linejoin="miter" fill="none" stroke="#674dff" d="M 37.6302 25.4638 L 31.87155 22.36238 L 41.36063 19.1743 L 47.11928 22.27574 Z "/>
<path transform="matrix(1,0,0,-1,78.742,63.413003)" stroke-width="1" stroke-linecap="butt" stroke-miterlimit="10" stroke-linejoin="miter" fill="none" stroke="#8a3bff" d="M 31.87155 22.36238 L 26.11288 18.38194 L 35.60196 15.19386 L 41.36063 19.1743 Z "/>
<path transform="matrix(1,0,0,-1,78.742,63.413003)" stroke-width="1" stroke-linecap="butt" stroke-miterlimit="10" stroke-linejoin="miter" fill="none" stroke="#a42eff" d="M 26.11288 18.38194 L 20.35423 13.52252 L 29.8433 10.33444 L 35.60196 15.19386 Z "/>
<path transform="matrix(1,0,0,-1,78.742,63.413003)" stroke-width="1" stroke-linecap="butt" stroke-miterlimit="10" stroke-linejoin="miter" fill="none" stroke="#b625ff" d="M 20.35423 13.52252 L 14.59557 7.78409 L 24.08464 4.59602 L 29.8433 10.33444 Z "/>
<path transform="matrix(1,0,0,-1,78.742,63.413003)" stroke-width="1" stroke-linecap="butt" stroke-miterlimit="10" stroke-linejoin="miter" fill="none" stroke="#be20ff" d="M 14.59557 7.78409 L 8.8369 1.16669 L 18.32597 -2.02136 L 24.08464 4.59602 Z "/>
<path transform="matrix(1,0,0,-1,78.742,63.413003)" stroke-width="1" stroke-linecap="butt" stroke-miterlimit="10" stroke-linejoin="miter" fill="none" stroke="#be20ff" d="M 8.8369 1.16669 L 3.07825 -6.32971 L 12.56732 -9.51778 L 18.32597 -2.02136 Z "/>
<path transform="matrix(1,0,0,-1,78.742,63.413003)" stroke-width="1" stroke-linecap="butt" stroke-miterlimit="10" stroke-linejoin="miter" fill="none" stroke="#b625ff" d="M 3.07825 -6.32971 L -2.6804 -14.70511 L 6.80865 -17.89317 L 12.56732 -9.51778 Z "/>
<path transform="matrix(1,0,0,-1,78.742,63.413003)" stroke-width="1" stroke-linecap="butt" stroke-miterlimit="10" stroke-linejoin="miter" fill="none" stroke="#a42eff" d="M -2.6804 -14.70511 L -8.43907 -23.95952 L 1.04999 -27.14758 L 6.80865 -17.89317 Z "/>
<path transform="matrix(1,0,0,-1,78.742,63.413003)" stroke-width="1" stroke-linecap="butt" stroke-miterlimit="10" stroke-linejoin="miter" fill="none" stroke="#8a3bff" d="M -8.43907 -23.95952 L -14.19772 -34.0929 L -4.70865 -37.28096 L 1.04999 -27.14758 Z "/>
<path transform="matrix(1,0,0,-1,78.742,63.413003)" d="M -8.11299 22.31763 L -19.63031 9.96179 L -.65216 4.68437 L 10.86514 17.0402 Z " fill="#df10ff"/>
<path transform="matrix(1,0,0,-1,78.742,63.413003)" stroke-width="1.59404" stroke-linecap="butt" stroke-miterlimit="10" stroke-linejoin="miter" fill="none" stroke="#000000" d="M -8.11299 22.31763 L -19.63031 9.96179 L -.65216 4.68437 L 10.86514 17.0402 Z "/>
<path transform="matrix(1,0,0,-1,78.742,63.413003)" stroke-width="1.19553" stroke-linecap="butt" stroke-miterlimit="10" stroke-linejoin="miter" fill="none" stroke="#000080" d="M -8.11299 -62.61511 L 10.86514 -65.69504 L -.65216 -79.80885 L -19.63031 -76.72894 L -8.11299 -62.61511 L 10.86514 -65.69504 "/>
<symbol id="font_1_1">
<path d="M .51000007 .674 C .51100006 .676 .51400008 .689 .51400008 .69 C .51400008 .69500008 .51000007 .704 .49800004 .704 C .47800005 .704 .39500005 .69600006 .37 .694 C .362 .693 .348 .69200006 .348 .671 C .348 .657 .362 .657 .374 .657 C .422 .657 .422 .65000006 .422 .642 C .422 .635 .42000003 .629 .41800005 .62 L .361 .39200003 C .34000004 .425 .306 .451 .25800003 .451 C .13000001 .451 0 .31 0 .16600001 C 0 .069000009 .065 0 .15100001 0 C .205 0 .25300003 .031000004 .29299999 .07 C .31200005 .010000001 .37 0 .39600004 0 C .43200005 0 .45700003 .022 .47500003 .053000004 C .49700005 .092 .51000007 .14900002 .51000007 .15300001 C .51000007 .16600001 .49700005 .16600001 .49400003 .16600001 C .48000003 .16600001 .47900004 .16200002 .47200007 .135 C .46000005 .087000008 .44100005 .028 .399 .028 C .37300004 .028 .366 .050000006 .366 .077 C .366 .096 .36800004 .105000007 .371 .118 L .51000007 .674 M .297 .135 C .29000003 .107 .268 .087000008 .246 .068 C .237 .060000004 .19700001 .028 .154 .028 C .117 .028 .081 .054000006 .081 .125 C .081 .17800002 .11 .28800003 .133 .328 C .179 .40800003 .23 .423 .25800003 .423 C .328 .423 .347 .347 .347 .336 C .347 .33200003 .34500004 .32500003 .34400005 .322 L .297 .135 Z "/>
</symbol>
<symbol id="font_1_2">
<path d="M .201 .116000007 C .19100002 .082 .15800002 .028 .107 .028 C .10400001 .028 .07400001 .028 .053000004 .042000005 C .094000007 .055000005 .09700001 .091 .09700001 .097 C .09700001 .119 .080000009 .134 .057000005 .134 C .029000007 .134 0 .11 0 .073 C 0 .023000002 .056 0 .10500001 0 C .15100003 0 .192 .029000003 .21700001 .071 C .241 .018000002 .296 0 .336 0 C .451 0 .512 .125 .512 .15300001 C .512 .16600001 .49900005 .16600001 .49600003 .16600001 C .48200003 .16600001 .48100005 .16100002 .47700004 .14900002 C .456 .08 .39600004 .028 .34 .028 C .3 .028 .279 .055000005 .279 .093 C .279 .119 .303 .21000001 .331 .321 C .351 .398 .39600004 .423 .42900003 .423 C .43100003 .423 .46200005 .423 .483 .409 C .451 .4 .439 .372 .439 .354 C .439 .33200003 .456 .317 .479 .317 C .50200006 .317 .535 .336 .535 .37800003 C .535 .43400003 .47100006 .451 .43100003 .451 C .381 .451 .34100003 .418 .319 .38 C .301 .421 .255 .451 .199 .451 C .087000008 .451 .023000002 .328 .023000002 .298 C .023000002 .285 .037 .285 .040000008 .285 C .053000004 .285 .054000006 .289 .059000009 .30200003 C .084 .38 .14700002 .423 .19600001 .423 C .229 .423 .256 .405 .256 .357 C .256 .337 .24400002 .287 .23500002 .25300003 L .201 .116000007 Z "/>
</symbol>
<use xlink:href="#font_1_1" transform="matrix(6.9738,0,0,-6.9738,88.1924,138.65473)"/>
<use xlink:href="#font_1_2" transform="matrix(6.9738,0,0,-6.9738,92.25115,138.65473)"/>
<symbol id="font_1_3">
<path d="M .50900009 .58100005 C .513 .595 .513 .597 .513 .60300007 C .513 .623 .49700005 .63500007 .48000003 .63500007 C .46900005 .63500007 .45000003 .63000008 .43900005 .611 C .43600003 .605 .42800004 .573 .42300005 .55300006 L .40200005 .47000004 C .39600004 .44600005 .36500005 .32000003 .36200003 .30900003 C .36100004 .30900003 .31700004 .22200002 .23900001 .22200002 C .171 .22200002 .171 .287 .171 .305 C .171 .35900004 .194 .42200003 .22400002 .499 C .23600002 .531 .24100001 .54300007 .24100001 .56 C .24100001 .60800006 .2 .64500007 .146 .64500007 C .045000007 .64500007 0 .509 0 .49200005 C 0 .47900004 .014000002 .47900004 .017 .47900004 C .031 .47900004 .032 .48400004 .035 .495 C .060000007 .578 .103 .61700007 .143 .61700007 C .16000001 .61700007 .168 .606 .168 .582 C .168 .559 .15900001 .537 .154 .52400007 C .106000009 .402 .096 .365 .096 .321 C .096 .30400003 .096 .25700004 .135 .22500001 C .16600001 .19900002 .20800002 .194 .235 .194 C .27500005 .194 .31100003 .209 .34400005 .23900001 C .33100004 .18400002 .32000003 .142 .27800004 .09200001 C .25100003 .061000006 .21100001 .027999998 .158 .027999998 C .15100001 .027999998 .104 .027999998 .083000008 .061000006 C .13700001 .067 .13700001 .11500001 .13700001 .116000007 C .13700001 .148 .107999999 .15400002 .098000008 .15400002 C .073 .15400002 .040000004 .134 .040000004 .08800001 C .040000004 .037 .088 0 .15900001 0 C .26000003 0 .38300003 .07800001 .41400004 .20300001 L .50900009 .58100005 Z "/>
</symbol>
<use xlink:href="#font_1_1" transform="matrix(6.9738,0,0,-6.9738,64.807399,150.51174)"/>
<use xlink:href="#font_1_3" transform="matrix(6.9738,0,0,-6.9738,68.85918,151.86466)"/>
<symbol id="font_2_1">
<path d="M 1.2490001 0 C 1.273 0 1.289 0 1.289 .033999996 C 1.289 .044999988 1.289 .060000004 1.273 .065999988 C 1.229 .08500001 1.176 .10699999 1.1060001 .164 C 1.041 .21700001 1.008 .266 .985 .301 C .97300007 .31800003 .969 .31800003 .94200006 .31800003 C .9250001 .31800003 .89900007 .31800003 .89900007 .29299999 C .89900007 .275 .972 .15900001 1.069 .085999999 L .05600001 .085999999 C .042999999 .085999999 0 .085999999 0 .042999984 C 0 0 .042999999 0 .05600001 0 L 1.2490001 0 Z "/>
</symbol>
<use xlink:href="#font_2_1" transform="matrix(4.9813,0,0,-4.9813,86.32789,51.865877)"/>
<symbol id="font_3_1">
<path d="M .354 .44800005 L .354 .39200003 C .41300003 .39200003 .421 .39200003 .421 .35300002 L .421 .168 C .421 .085 .35700003 .046000005 .28100003 .046000005 C .195 .046000005 .194 .068 .194 .116000007 L .194 .45600004 L 0 .44800005 L 0 .39200003 C .059 .39200003 .06700001 .39200003 .06700001 .35300002 L .06700001 .127 C .06700001 .011 .178 0 .264 0 C .29700003 0 .37100003 0 .428 .071 L .428 0 L .615 .006 L .615 .062000004 C .556 .062000004 .54800006 .062000004 .54800006 .101 L .54800006 .45600004 L .354 .44800005 Z "/>
</symbol>
<use xlink:href="#font_3_1" transform="matrix(6.9738,0,0,-6.9738,87.48332,57.43385)"/>
<use xlink:href="#font_2_1" transform="matrix(4.9813,0,0,-4.9813,63.42388,59.736879)"/>
<symbol id="font_3_2">
<path d="M .537 .37700004 C .544 .39000003 .545 .39100004 .56600007 .39300005 C .578 .39400003 .60300007 .39400003 .61 .39400003 L .61 .45000006 C .579 .44800005 .558 .44600005 .526 .44600005 C .496 .44600005 .45700003 .44700004 .42700003 .45000006 L .42700003 .39400003 C .453 .39400003 .45900003 .39200003 .47100003 .38800005 L .337 .125 L .20000002 .39400003 L .24700003 .39400003 L .24700003 .45000006 C .20400001 .44800005 .16000001 .44600005 .11700001 .44600005 C .07800001 .44600005 .039 .44700004 0 .45000006 L 0 .39400003 L .065 .39400003 L .252 .028 C .26500003 .0019999999 .275 0 .305 0 C .335 0 .344 .0019999999 .358 .028 L .537 .37700004 Z "/>
</symbol>
<use xlink:href="#font_3_2" transform="matrix(6.9738,0,0,-6.9738,64.44605,65.30385)"/>
</g>
<use xlink:href="#font_1_2" transform="matrix(6.9738,0,0,-6.9738,3.6557415,152.99573)"/>
<use xlink:href="#font_1_3" transform="matrix(6.9738,0,0,-6.9738,143.67377,124.432659)"/>
<symbol id="font_1_4">
<path d="M .10700001 .098000008 C .133 .124000009 .15100001 .143 .23600002 .21100001 C .25700004 .22800002 .33200003 .28800003 .361 .316 C .422 .37600003 .46000005 .42700003 .46000005 .439 C .46000005 .451 .44700004 .451 .44300003 .451 C .43400003 .451 .431 .449 .426 .441 C .39500005 .395 .374 .38 .35000003 .38 C .338 .38 .323 .381 .29299999 .41 C .259 .444 .237 .451 .214 .451 C .134 .451 .08 .364 .08 .334 C .08 .32500003 .09 .322 .097 .322 C .109 .322 .111 .32500003 .11500001 .336 C .13000001 .37100003 .186 .373 .202 .373 C .22500001 .373 .251 .367 .265 .364 C .32 .352 .32700003 .352 .352 .352 C .32600004 .32500003 .30800004 .307 .21300002 .23100002 C .135 .16900002 .10800001 .14400001 .089 .124000009 C .029 .065000008 0 .021000002 0 .012000001 C 0 0 .012999997 0 .016999998 0 C .027000003 0 .029 .0020000004 .034 .010000001 C .061000006 .048000006 .09200001 .071 .126 .071 C .13800001 .071 .15300001 .07 .18 .045 C .21100001 .015000001 .23100002 0 .263 0 C .37 0 .43700005 .12100001 .43700005 .15500002 C .43700005 .16700001 .426 .16800002 .42000003 .16800002 C .408 .16800002 .40600003 .16300002 .402 .15200001 C .38300003 .102000009 .324 .078 .27500005 .078 C .25200004 .078 .22700002 .083000008 .202 .089 C .156 .099 .148 .099 .13000001 .099 C .128 .099 .113000009 .099 .10700001 .098000008 Z "/>
</symbol>
<use xlink:href="#font_1_4" transform="matrix(6.9738,0,0,-6.9738,41.0634,6.392736)"/>
</svg>
