<?xml version="1.0" encoding="UTF-8" standalone="no"?>
<svg
   xmlns:dc="http://purl.org/dc/elements/1.1/"
   xmlns:cc="http://creativecommons.org/ns#"
   xmlns:rdf="http://www.w3.org/1999/02/22-rdf-syntax-ns#"
   xmlns:svg="http://www.w3.org/2000/svg"
   xmlns="http://www.w3.org/2000/svg"
   xmlns:sodipodi="http://sodipodi.sourceforge.net/DTD/sodipodi-0.dtd"
   xmlns:inkscape="http://www.inkscape.org/namespaces/inkscape"
   version="1.0"
   width="800"
   height="600"
   id="volterra_function"
   inkscape:version="0.48.2 r9819"
   sodipodi:docname="volerra_function1.svg">
  <metadata
     id="metadata19">
    <rdf:RDF>
      <cc:Work
         rdf:about="">
        <dc:format>image/svg+xml</dc:format>
        <dc:type
           rdf:resource="http://purl.org/dc/dcmitype/StillImage" />
      </cc:Work>
    </rdf:RDF>
  </metadata>
  <defs
     id="defs17" />
  <sodipodi:namedview
     pagecolor="#ffffff"
     bordercolor="#666666"
     borderopacity="1"
     objecttolerance="10"
     gridtolerance="10"
     guidetolerance="10"
     inkscape:pageopacity="0"
     inkscape:pageshadow="2"
     inkscape:window-width="1680"
     inkscape:window-height="989"
     id="namedview15"
     showgrid="false"
     inkscape:zoom="1.2516667"
     inkscape:cx="400"
     inkscape:cy="300"
     inkscape:window-x="-9"
     inkscape:window-y="-9"
     inkscape:window-maximized="1"
     inkscape:current-layer="volterra_function" />
  <g
     style="stroke:#0000FF;stroke-width:1;stroke-linejoin:round;fill:none"
     id="g3">
    <path
       d="M  32.00  32.00 L  32.00 568.00"
       id="path5" />
  </g>
  <g
     style="stroke:#0000FF;stroke-width:1;stroke-linejoin:round;fill:none"
     id="g7">
    <path
       d="M  32.00 300.00 L 768.00 300.00"
       id="path9" />
  </g>
  <g
     style="stroke:#000000;stroke-width:1;stroke-linejoin:round;fill:none"
     id="g11">
    <path
       d="M  32.00 300.00 L  79.00 299.95 L  80.00 300.10 L  81.00 299.84 L  82.00 299.04 L  83.00 299.33 L  84.00 298.23 L  85.00 299.76 L  86.00 299.85 L  87.00 300.30 L  88.00 299.92 L  89.00 299.98 L  90.00 300.00 L 148.00 299.95 L 149.00 300.10 L 150.00 299.84 L 151.00 299.04 L 152.00 299.33 L 153.00 300.32 L 154.00 302.98 L 155.00 303.05 L 156.00 299.52 L 157.00 305.96 L 158.00 305.96 L 159.00 308.78 L 160.00 299.31 L 161.00 291.11 L 162.00 312.82 L 163.00 285.89 L 164.00 311.22 L 165.00 300.95 L 166.00 280.99 L 167.00 319.14 L 168.00 312.69 L 169.00 273.59 L 170.00 269.51 L 171.00 273.59 L 172.00 312.69 L 173.00 319.14 L 174.00 280.99 L 175.00 300.95 L 176.00 311.22 L 177.00 285.89 L 178.00 312.82 L 179.00 291.11 L 180.00 299.31 L 181.00 308.78 L 182.00 305.96 L 183.00 305.96 L 184.00 299.52 L 185.00 303.05 L 186.00 302.98 L 187.00 300.32 L 188.00 299.33 L 189.00 299.04 L 190.00 299.84 L 191.00 300.10 L 192.00 299.95 L 193.00 300.00 L 251.00 299.98 L 252.00 299.92 L 253.00 300.30 L 254.00 299.85 L 255.00 299.76 L 256.00 298.23 L 257.00 299.33 L 258.00 299.04 L 259.00 299.84 L 260.00 300.10 L 261.00 299.95 L 262.00 300.00 L 309.00 299.95 L 310.00 300.10 L 311.00 299.84 L 312.00 299.04 L 313.00 299.33 L 314.00 300.32 L 315.00 302.98 L 316.00 303.05 L 317.00 299.52 L 318.00 305.96 L 319.00 305.96 L 320.00 308.78 L 321.00 299.31 L 322.00 291.11 L 323.00 312.82 L 324.00 285.89 L 325.00 311.22 L 326.00 300.95 L 327.00 280.99 L 328.00 319.14 L 329.00 312.69 L 330.00 273.59 L 331.00 282.16 L 332.00 323.99 L 333.00 335.12 L 334.00 301.38 L 335.00 262.14 L 336.00 256.19 L 337.00 287.45 L 338.00 331.04 L 339.00 357.81 L 340.00 352.98 L 341.00 320.43 L 342.00 276.16 L 343.00 238.53 L 344.00 220.78 L 345.00 227.72 L 346.00 256.22 L 347.00 297.93 L 348.00 342.51 L 349.00 380.40 L 350.00 404.63 L 351.00 411.56 L 352.00 400.82 L 353.00 374.69 L 354.00 337.25 L 355.00 293.47 L 356.00 248.45 L 357.00 206.83 L 358.00 172.38 L 359.00 147.80 L 360.00 134.70 L 361.00 133.61 L 362.00 144.19 L 363.00 165.35 L 364.00 195.49 L 365.00 232.65 L 366.00 274.71 L 367.00 319.51 L 368.00 364.98 L 369.00 409.23 L 370.00 450.58 L 371.00 487.63 L 372.00 519.24 L 373.00 544.59 L 374.00 563.10 L 375.00 574.45 L 376.00 578.54 L 377.00 578.56 L 424.00 578.54 L 425.00 574.45 L 426.00 563.10 L 427.00 544.59 L 428.00 519.24 L 429.00 487.63 L 430.00 450.58 L 431.00 409.23 L 432.00 364.98 L 433.00 319.51 L 434.00 274.71 L 435.00 232.65 L 436.00 195.49 L 437.00 165.35 L 438.00 144.19 L 439.00 133.61 L 440.00 134.70 L 441.00 147.80 L 442.00 172.38 L 443.00 206.83 L 444.00 248.45 L 445.00 293.47 L 446.00 337.25 L 447.00 374.69 L 448.00 400.82 L 449.00 411.56 L 450.00 404.63 L 451.00 380.40 L 452.00 342.51 L 453.00 297.93 L 454.00 256.22 L 455.00 227.72 L 456.00 220.78 L 457.00 238.53 L 458.00 276.16 L 459.00 320.43 L 460.00 352.98 L 461.00 357.81 L 462.00 331.04 L 463.00 287.45 L 464.00 256.19 L 465.00 262.14 L 466.00 301.38 L 467.00 335.12 L 468.00 323.99 L 469.00 282.16 L 470.00 273.59 L 471.00 312.69 L 472.00 319.14 L 473.00 280.99 L 474.00 300.95 L 475.00 311.22 L 476.00 285.89 L 477.00 312.82 L 478.00 291.11 L 479.00 299.31 L 480.00 308.78 L 481.00 305.96 L 482.00 305.96 L 483.00 299.52 L 484.00 303.05 L 485.00 302.98 L 486.00 300.32 L 487.00 299.33 L 488.00 299.04 L 489.00 299.84 L 490.00 300.10 L 491.00 299.95 L 492.00 300.00 L 539.00 299.95 L 540.00 300.10 L 541.00 299.84 L 542.00 299.04 L 543.00 299.33 L 544.00 298.23 L 545.00 299.76 L 546.00 299.85 L 547.00 300.30 L 548.00 299.92 L 549.00 299.98 L 550.00 300.00 L 608.00 299.95 L 609.00 300.10 L 610.00 299.84 L 611.00 299.04 L 612.00 299.33 L 613.00 300.32 L 614.00 302.98 L 615.00 303.05 L 616.00 299.52 L 617.00 305.96 L 618.00 305.96 L 619.00 308.78 L 620.00 299.31 L 621.00 291.11 L 622.00 312.82 L 623.00 285.89 L 624.00 311.22 L 625.00 300.95 L 626.00 280.99 L 627.00 319.14 L 628.00 312.69 L 629.00 273.59 L 630.00 269.51 L 631.00 273.59 L 632.00 312.69 L 633.00 319.14 L 634.00 280.99 L 635.00 300.95 L 636.00 311.22 L 637.00 285.89 L 638.00 312.82 L 639.00 291.11 L 640.00 299.31 L 641.00 308.78 L 642.00 305.96 L 643.00 305.96 L 644.00 299.52 L 645.00 303.05 L 646.00 302.98 L 647.00 300.32 L 648.00 299.33 L 649.00 299.04 L 650.00 299.84 L 651.00 300.10 L 652.00 299.95 L 653.00 300.00 L 711.00 299.98 L 712.00 299.92 L 713.00 300.30 L 714.00 299.85 L 715.00 299.76 L 716.00 298.23 L 717.00 299.33 L 718.00 299.04 L 719.00 299.84 L 720.00 300.10 L 721.00 299.95 L 722.00 300.00 L 767.00 300.00 "
       id="path13" />
  </g>
  <path
     style="fill:none;stroke:#000000;stroke-width:1;stroke-linejoin:round;stroke-miterlimit:4;stroke-dasharray:none"
     id="path3083"
     d="m 96.97558,131.81025 0.96091,-0.01 0.9609,0.0385 0.96091,-0.01 0.96091,0.0577 0.9609,-0.17296 0.96091,0.27866 0.96091,-0.41319 0.9609,-0.0673 0.9609,0.12492 0.96091,-0.12492 0.9609,-0.18257 0.96091,-0.0673 0.96091,1.06661 0.9609,-0.24984 0.96091,-0.98973 0.96091,-0.33632 0.9609,0.23062 0.96091,1.86416 0.96091,0.38436 0.9609,-3.04607 0.96091,-0.0384 0.9609,1.50862 0.9609,-0.99933 0.96091,1.60471 0.96091,-1.71042 0.9609,-0.1057 0.96091,2.48875 0.96091,1.09544 0.9609,-2.76742 0.96091,-0.36514 0.96091,2.48875 0.9609,2.26774 0.96091,-6.82244 0.96091,4.33369 0.9609,-3.14216 0.9609,5.92878 0.96091,-8.9172 0.9609,2.83467 0.96091,6.58221 0.96091,1.36449 0.9609,-1.45097 0.96091,-1.057 0.96091,0.51889 0.9609,1.96985 0.96091,1.77768 0.96091,-2.09478 0.9609,-8.08121 0.96091,-6.39964 0.9609,7.89865 0.9609,10.46426 0.96091,-12.16506 0.96091,-5.23694 0.9609,18.18034 0.96091,-15.47059 0.96091,2.84428 0.9609,10.41623 0.96091,-19.48718 0.96091,24.08031 0.9609,-25.88681 0.96091,26.66514 0.96091,-27.48191 0.9609,28.56773 0.9609,-29.2692 0.96091,28.0969 0.9609,-23.04253 0.96091,12.39569 0.96091,3.68027 0.9609,-21.34172 0.96091,32.68041 0.96091,-28.91366 0.9609,7.49507 0.96091,21.02462 0.96091,-35.17877 0.9609,19.16046 0.96091,16.58524 0.9609,-36.30303 0.9609,14.40398 0.96091,26.56906 0.96091,-32.93986 0.9609,-8.08122 0.96091,37.79243 0.96091,-7.09148 0.9609,-36.2646 0.96091,15.84534 0.96091,34.28513 0.9609,-18.81454 0.96091,-34.51574 0.96091,16.71015 0.9609,36.99489 0.9609,3.42082 2.88272,-3.42082 0.96091,-36.99489 0.9609,-16.71015 0.96091,34.51574 0.96091,18.81454 0.9609,-34.28513 0.96091,-15.84534 0.96091,36.2646 0.9609,7.09148 0.96091,-37.79243 0.9609,8.08122 0.96091,32.93986 0.9609,-26.56906 0.96091,-14.40398 0.96091,36.30303 0.9609,-16.58524 0.96091,-19.16046 0.9609,35.17877 0.96091,-21.02462 0.96091,-7.49507 0.9609,28.91366 0.96091,-32.68041 0.96091,21.34172 0.9609,-3.68027 0.9609,-12.39569 0.96091,23.04253 0.96091,-28.0969 0.9609,29.2692 0.96091,-28.56773 0.96091,27.48191 0.9609,-26.66514 0.96091,25.88681 0.9609,-24.08031 0.96091,19.48718 0.96091,-10.41623 0.9609,-2.84428 0.96091,15.47059 0.9609,-18.18034 0.96091,5.23694 0.9609,12.16506 0.96091,-10.46426 0.96091,-7.89865 0.9609,6.39964 0.96091,8.08121 0.96091,2.09478 0.9609,-1.77768 0.96091,-1.96985 0.9609,-0.51889 0.96091,1.057 0.96091,1.45097 0.9609,-1.36449 0.9609,-6.58221 0.96091,-2.83467 0.96091,8.9172 0.9609,-5.92878 0.96091,3.14216 0.96091,-4.33369 0.9609,6.82244 0.96091,-2.26774 0.96091,-2.48875 0.9609,0.36514 0.96091,2.76742 0.9609,-1.09544 0.96091,-2.48875 0.9609,0.1057 0.96091,1.71042 0.9609,-1.60471 0.96091,0.99933 0.96091,-1.50862 0.9609,0.0384 0.96091,3.04607 0.96091,-0.38436 0.9609,-1.86416 0.96091,-0.23062 0.96091,0.33632 0.9609,0.98973 0.96091,0.24984 0.9609,-1.06661 0.9609,0.0673 0.96091,0.18257 0.96091,0.12492 0.9609,-0.12492 0.96091,0.0673 0.96091,0.41319 0.9609,-0.27866 0.96091,0.17296 0.96091,-0.0577 0.9609,0.01 0.96091,-0.0385 0.96091,0.01 0.9609,0"
     inkscape:connector-curvature="0"
     sodipodi:nodetypes="cccccccccccccccccccccccccccccccccccccccccccccccccccccccccccccccccccccccccccccccccccccccccccccccccccccccccccccccccccccccccccccccccccccccccccccccccccccccccccccccccccccccccccccccccccccc" />
  <path
     sodipodi:type="arc"
     style="fill:none;stroke:#c00000;stroke-width:1.31230581;stroke-linecap:round;stroke-linejoin:round;stroke-miterlimit:4;stroke-opacity:1;stroke-dasharray:none"
     id="path3774"
     sodipodi:cx="-101.5"
     sodipodi:cy="140.5"
     sodipodi:rx="76.5"
     sodipodi:ry="77.5"
     d="m -25,140.5 a 76.5,77.5 0 1 1 -153,0 76.5,77.5 0 1 1 153,0 z"
     transform="matrix(1.1504728,0,0,1.1356279,301.85566,-28.638401)" />
  <path
     sodipodi:type="arc"
     style="fill:none;stroke:#c00000;stroke-width:10.49844646;stroke-linecap:round;stroke-linejoin:round;stroke-miterlimit:4;stroke-opacity:1;stroke-dasharray:none"
     id="path3774-1"
     sodipodi:cx="-101.5"
     sodipodi:cy="140.5"
     sodipodi:rx="76.5"
     sodipodi:ry="77.5"
     d="m -25,140.5 a 76.5,77.5 0 1 1 -153,0 76.5,77.5 0 1 1 153,0 z"
     transform="matrix(0.1438091,0,0,0.14195349,98.347378,279.54046)" />
  <path
     style="fill:none;stroke:#c00000;stroke-width:1.50000000000000000;stroke-linecap:butt;stroke-linejoin:miter;stroke-opacity:1;stroke-miterlimit:4;stroke-dasharray:none"
     d="M 94.274301,281.22504 131.82423,216.51132"
     id="path3794"
     inkscape:connector-curvature="0"
     sodipodi:nodetypes="cc" />
  <path
     style="fill:#c00000;fill-opacity:1;stroke:none"
     d="m 132.70189,215.05919 c -0.40957,0 -11.49351,8.50812 -11.49351,8.50812 l 9.87518,5.31378 z"
     id="path3796"
     inkscape:connector-curvature="0"
     sodipodi:nodetypes="cccc" />
</svg>
